<?xml version="1.0" encoding="UTF-8" standalone="no"?>
<!-- Created with Inkscape (http://www.inkscape.org/) -->

<svg
   version="1.1"
   id="svg2"
   xml:space="preserve"
   width="793.70135"
   height="1122.52"
   viewBox="0 0 793.70135 1122.52"
   xmlns="http://www.w3.org/2000/svg"
   xmlns:svg="http://www.w3.org/2000/svg"><defs
     id="defs6"><clipPath
       clipPathUnits="userSpaceOnUse"
       id="clipPath16"><path
         d="M 0,841.89 H 595.276 V 0 H 0 Z"
         id="path14" /></clipPath></defs><g
     id="g8"
     transform="matrix(1.3333333,0,0,-1.3333333,0,1122.52)"><g
       id="g10"><g
         id="g12"
         clip-path="url(#clipPath16)"><g
           id="g18"
           transform="translate(464.5654,419.0851)"><path
             d="m 0,0 c 0,-76.027 -61.633,-137.659 -137.66,-137.659 -76.028,0 -137.66,61.632 -137.66,137.659 0,76.028 61.632,137.661 137.66,137.661 C -61.633,137.661 0,76.028 0,0"
             style="fill:#353b45;fill-opacity:1;fill-rule:nonzero;stroke:none"
             id="path20" /></g><g
           id="g22"
           transform="translate(456.2852,423.2257)"><path
             d="m 0,0 c 0,-76.027 -61.633,-137.66 -137.66,-137.66 -76.028,0 -137.66,61.633 -137.66,137.66 0,76.027 61.632,137.66 137.66,137.66 C -61.633,137.66 0,76.027 0,0"
             style="fill:#ffc906;fill-opacity:1;fill-rule:nonzero;stroke:none"
             id="path24" /></g><g
           id="g26"
           transform="translate(312.6006,389.1349)"><path
             d="m 0,0 c 0,-12.057 2.519,-21.065 7.56,-27.027 5.037,-5.962 11.78,-8.943 20.227,-8.943 8.58,0 15.391,2.981 20.432,8.943 5.037,5.962 7.559,14.97 7.559,27.027 0,11.924 -2.488,20.867 -7.458,26.829 -4.973,5.962 -11.748,8.943 -20.329,8.943 -8.447,0 -15.221,-2.949 -20.33,-8.843 C 2.553,21.032 0,12.055 0,0 m -36.778,0 c 0,10.335 1.667,19.477 5.006,27.426 3.337,7.949 7.898,14.606 13.69,19.972 5.787,5.366 12.597,9.439 20.432,12.222 7.83,2.782 16.31,4.173 25.437,4.173 9.124,0 17.604,-1.391 25.437,-4.173 C 61.056,56.837 67.898,52.764 73.758,47.398 79.611,42.032 84.209,35.375 87.55,27.426 90.885,19.477 92.555,10.335 92.555,0 c 0,-10.334 -1.635,-19.509 -4.903,-27.523 -3.27,-8.019 -7.8,-14.707 -13.589,-20.074 -5.79,-5.365 -12.634,-9.439 -20.533,-12.221 -7.901,-2.783 -16.483,-4.174 -25.743,-4.174 -9.266,0 -17.848,1.427 -25.745,4.273 -7.901,2.848 -14.71,6.987 -20.431,12.421 -5.721,5.431 -10.217,12.122 -13.485,20.072 -3.27,7.95 -4.904,17.023 -4.904,27.226"
             style="fill:#ffc906;fill-opacity:1;fill-rule:nonzero;stroke:none"
             id="path28" /></g><g
           id="g30"
           transform="translate(310.5156,391.1632)"><path
             d="m 0,0 c 0,-12.058 2.519,-21.066 7.56,-27.028 5.037,-5.961 11.78,-8.942 20.227,-8.942 8.58,0 15.391,2.981 20.432,8.942 5.037,5.962 7.559,14.97 7.559,27.028 0,11.924 -2.488,20.867 -7.458,26.829 -4.973,5.962 -11.747,8.943 -20.329,8.943 -8.447,0 -15.221,-2.95 -20.33,-8.844 C 2.554,21.031 0,12.055 0,0 m -36.778,0 c 0,10.334 1.667,19.476 5.007,27.425 3.336,7.949 7.897,14.607 13.689,19.973 5.787,5.366 12.598,9.439 20.432,12.222 7.83,2.782 16.31,4.173 25.437,4.173 9.124,0 17.604,-1.391 25.437,-4.173 C 61.056,56.837 67.898,52.764 73.759,47.398 79.612,42.032 84.209,35.374 87.55,27.425 90.885,19.476 92.555,10.334 92.555,0 c 0,-10.335 -1.635,-19.51 -4.903,-27.524 -3.27,-8.018 -7.799,-14.707 -13.589,-20.073 -5.79,-5.366 -12.634,-9.439 -20.533,-12.221 -7.901,-2.783 -16.483,-4.174 -25.743,-4.174 -9.266,0 -17.848,1.426 -25.745,4.272 -7.901,2.848 -14.71,6.988 -20.431,12.421 -5.721,5.432 -10.216,12.123 -13.485,20.073 -3.269,7.95 -4.904,17.022 -4.904,27.226"
             style="fill:#353b45;fill-opacity:1;fill-rule:nonzero;stroke:none"
             id="path32" /></g><g
           id="g34"
           transform="translate(485.2656,375.6906)"><path
             d="m 0,0 c 0,-7.155 -1.26,-13.683 -3.78,-19.576 -2.521,-5.897 -6.163,-10.93 -10.93,-15.103 -4.77,-4.174 -10.559,-7.387 -17.367,-9.638 -6.813,-2.252 -14.507,-3.379 -23.088,-3.379 -8.582,0 -16.278,1.127 -23.089,3.379 -6.812,2.251 -12.6,5.464 -17.367,9.638 -4.768,4.173 -8.412,9.206 -10.931,15.103 -2.52,5.893 -3.779,12.421 -3.779,19.576 v 75.916 c 1.497,0.263 3.883,0.626 7.15,1.092 3.271,0.463 6.402,0.696 9.399,0.696 3.134,0 5.89,-0.233 8.276,-0.696 2.38,-0.466 4.392,-1.291 6.027,-2.484 1.634,-1.193 2.861,-2.85 3.677,-4.968 0.819,-2.121 1.226,-4.904 1.226,-8.347 V 0.596 c 0,-6.36 1.804,-11.327 5.415,-14.906 3.608,-3.577 8.274,-5.365 13.996,-5.365 5.855,0 10.555,1.788 14.097,5.365 3.541,3.579 5.312,8.546 5.312,14.906 v 75.32 c 1.498,0.263 3.883,0.626 7.152,1.092 3.268,0.463 6.4,0.696 9.399,0.696 3.131,0 5.89,-0.233 8.274,-0.696 2.382,-0.466 4.394,-1.291 6.027,-2.484 1.634,-1.193 2.86,-2.85 3.678,-4.968 C -0.409,67.435 0,64.652 0,61.209 Z"
             style="fill:#ffc906;fill-opacity:1;fill-rule:nonzero;stroke:none"
             id="path36" /></g><g
           id="g38"
           transform="translate(485.2656,377.7179)"><path
             d="m 0,0 c 0,-7.154 -1.26,-13.682 -3.78,-19.575 -2.521,-5.897 -6.163,-10.93 -10.93,-15.104 -4.77,-4.174 -10.559,-7.387 -17.367,-9.638 -6.813,-2.251 -14.507,-3.378 -23.088,-3.378 -8.582,0 -16.278,1.127 -23.089,3.378 -6.812,2.251 -12.6,5.464 -17.367,9.638 -4.768,4.174 -8.412,9.207 -10.931,15.104 -2.52,5.893 -3.779,12.421 -3.779,19.575 v 75.916 c 1.497,0.264 3.883,0.627 7.15,1.092 3.271,0.464 6.402,0.697 9.399,0.697 3.134,0 5.89,-0.233 8.276,-0.697 2.38,-0.465 4.392,-1.291 6.027,-2.483 1.634,-1.193 2.861,-2.851 3.677,-4.969 0.819,-2.12 1.226,-4.903 1.226,-8.346 V 0.597 c 0,-6.361 1.804,-11.328 5.415,-14.906 3.608,-3.577 8.274,-5.366 13.996,-5.366 5.855,0 10.555,1.789 14.097,5.366 3.541,3.578 5.312,8.545 5.312,14.906 v 75.319 c 1.498,0.264 3.883,0.627 7.152,1.092 3.268,0.464 6.4,0.697 9.399,0.697 3.131,0 5.89,-0.233 8.274,-0.697 2.382,-0.465 4.394,-1.291 6.027,-2.483 1.634,-1.193 2.86,-2.851 3.678,-4.969 C -0.409,67.436 0,64.653 0,61.21 Z"
             style="fill:#353b45;fill-opacity:1;fill-rule:nonzero;stroke:none"
             id="path40" /></g><g
           id="g42"
           transform="translate(276.4961,327.4455)"><path
             d="m 0,0 c -1.5,-0.397 -3.815,-0.795 -6.947,-1.191 -3.135,-0.399 -6.199,-0.598 -9.194,-0.598 -6.267,0 -10.966,1.025 -14.098,3.08 -3.135,2.053 -4.699,6.391 -4.699,13.019 v 26.828 c -3.406,4.899 -7.085,10.334 -11.033,16.296 -3.954,5.962 -7.834,12.054 -11.646,18.283 -3.815,6.226 -7.356,12.352 -10.626,18.383 -3.267,6.027 -5.924,11.557 -7.966,16.594 1.767,2.385 4.188,4.571 7.252,6.558 3.064,1.987 6.845,2.981 11.34,2.981 5.312,0 9.635,-1.062 12.973,-3.18 3.336,-2.12 6.504,-6.095 9.5,-11.924 l 16.958,-33.188 h 1.228 c 1.906,4.105 3.576,7.85 5.005,11.228 1.431,3.379 2.826,6.757 4.188,10.136 1.36,3.378 13.216,27.166 14.716,30.812 1.496,3.642 3.198,7.849 5.109,12.619 2.451,1.193 5.173,2.118 8.172,2.782 2.993,0.662 5.853,0.994 8.58,0.994 4.768,0 8.818,-1.226 12.157,-3.676 3.337,-2.454 5.006,-6.13 5.006,-11.03 0,-1.59 -0.342,-3.512 -1.022,-5.764 -0.682,-2.254 -2.248,-5.664 -4.699,-10.234 C 37.803,105.237 23.803,78.763 19.104,70.947 14.405,63.129 8.034,52.928 0,40.343 Z"
             style="fill:#ffc906;fill-opacity:1;fill-rule:nonzero;stroke:none"
             id="path44" /></g><g
           id="g46"
           transform="translate(276.4961,329.4738)"><path
             d="m 0,0 c -1.5,-0.398 -3.815,-0.795 -6.947,-1.192 -3.135,-0.399 -6.199,-0.597 -9.194,-0.597 -6.267,0 -10.966,1.024 -14.098,3.08 -3.135,2.053 -4.699,6.391 -4.699,13.018 v 26.829 c -3.406,4.899 -7.085,10.334 -11.033,16.295 -3.954,5.962 -7.834,12.054 -11.646,18.284 -3.815,6.226 -7.356,12.352 -10.626,18.382 -3.267,6.027 -5.924,11.558 -7.966,16.595 1.767,2.384 4.188,4.57 7.252,6.557 3.064,1.988 6.845,2.982 11.34,2.982 5.312,0 9.635,-1.063 12.973,-3.18 3.336,-2.12 6.504,-6.095 9.5,-11.924 l 16.958,-33.188 h 1.228 c 1.906,4.104 3.576,7.849 5.005,11.228 1.431,3.378 2.826,6.757 4.188,10.135 1.36,3.379 13.216,27.167 14.716,30.813 1.496,3.641 3.198,7.849 5.109,12.618 2.451,1.193 5.173,2.119 8.172,2.783 2.993,0.661 5.853,0.994 8.58,0.994 4.768,0 8.818,-1.227 12.157,-3.677 3.337,-2.453 5.006,-6.13 5.006,-11.029 0,-1.591 -0.342,-3.513 -1.022,-5.764 -0.682,-2.255 -2.248,-5.664 -4.699,-10.234 C 37.803,105.237 23.803,78.763 19.104,70.947 14.405,63.129 8.034,52.928 0,40.343 Z"
             style="fill:#353b45;fill-opacity:1;fill-rule:nonzero;stroke:none"
             id="path48" /></g><g
           id="g50"
           transform="translate(312.9355,460.9928)"><path
             d="m 0,0 h -136.446 c -8.911,0 -16.135,7.224 -16.135,16.135 v 23.219 c 0,8.912 7.224,16.136 16.135,16.136 H -8.195 c 6.841,0 12.939,-4.314 15.216,-10.765 L 15.216,21.506 C 18.921,11.007 11.133,0 0,0"
             style="fill:#353b45;fill-opacity:1;fill-rule:nonzero;stroke:none"
             id="path52" /></g><g
           id="g54"
           transform="translate(195.585,483.9372)"><path
             d="m 0,0 v 12.73 h -1.308 c -1.046,0 -1.796,0.2 -2.247,0.601 -0.453,0.401 -0.678,1.048 -0.678,1.941 0,0.893 0.225,1.544 0.678,1.953 0.451,0.408 1.201,0.611 2.247,0.611 h 6.756 c 1.031,0 1.776,-0.203 2.236,-0.611 0.459,-0.409 0.689,-1.06 0.689,-1.953 0,-0.816 -0.217,-1.444 -0.653,-1.883 C 7.284,12.95 6.66,12.73 5.852,12.73 H 5.448 V -8.248 C 5.448,-8.972 5.367,-9.425 5.21,-9.611 5.051,-9.795 4.693,-9.888 4.14,-9.888 H 1.761 c -0.761,0 -1.297,0.077 -1.606,0.231 -0.308,0.155 -0.574,0.424 -0.797,0.809 L -10.538,8.041 V -4.505 h 1.382 c 1.029,0 1.766,-0.193 2.212,-0.577 0.443,-0.385 0.666,-1.025 0.666,-1.918 0,-0.909 -0.227,-1.564 -0.68,-1.964 -0.451,-0.4 -1.184,-0.6 -2.198,-0.6 h -6.827 c -1.031,0 -1.776,0.2 -2.236,0.6 -0.461,0.4 -0.691,1.055 -0.691,1.964 0,0.816 0.215,1.437 0.642,1.86 0.429,0.423 1.063,0.635 1.903,0.635 h 0.382 V 12.73 h -0.382 c -0.808,0 -1.435,0.22 -1.879,0.659 -0.443,0.439 -0.666,1.067 -0.666,1.883 0,0.893 0.234,1.544 0.702,1.953 0.468,0.408 1.209,0.611 2.225,0.611 h 3.9 c 0.936,0 1.57,-0.119 1.903,-0.358 0.333,-0.239 0.705,-0.72 1.117,-1.443 z"
             style="fill:#ffc906;fill-opacity:1;fill-rule:nonzero;stroke:none"
             id="path56" /></g><g
           id="g58"
           transform="translate(226.1255,496.8991)"><path
             d="m 0,0 h -11.06 v -5.915 h 4.187 v 0.278 c 0,0.878 0.198,1.532 0.595,1.964 0.395,0.43 0.997,0.646 1.808,0.646 0.713,0 1.295,-0.197 1.747,-0.589 0.452,-0.393 0.678,-0.89 0.678,-1.489 0,-0.033 0.007,-0.132 0.024,-0.301 0.015,-0.171 0.024,-0.34 0.024,-0.509 v -4.782 c 0,-1.032 -0.191,-1.771 -0.572,-2.219 -0.38,-0.446 -0.997,-0.669 -1.855,-0.669 -0.808,0 -1.418,0.208 -1.832,0.623 -0.411,0.417 -0.617,1.033 -0.617,1.849 v 0.416 h -4.187 v -6.908 H 0 v 2.75 c 0,1.031 0.202,1.77 0.606,2.217 0.405,0.447 1.067,0.67 1.988,0.67 0.904,0 1.55,-0.22 1.939,-0.658 0.387,-0.439 0.582,-1.183 0.582,-2.229 v -5.592 c 0,-0.831 -0.167,-1.386 -0.5,-1.663 -0.333,-0.277 -0.992,-0.416 -1.974,-0.416 H -16.84 c -1.046,0 -1.797,0.2 -2.247,0.6 -0.454,0.4 -0.678,1.055 -0.678,1.965 0,0.815 0.213,1.436 0.642,1.859 0.428,0.423 1.053,0.635 1.879,0.635 h 0.404 v 17.236 h -0.404 c -0.809,0 -1.432,0.219 -1.868,0.658 -0.436,0.439 -0.653,1.067 -0.653,1.884 0,0.892 0.228,1.543 0.689,1.952 0.46,0.408 1.205,0.612 2.236,0.612 H 2.641 c 0.967,0 1.62,-0.143 1.963,-0.428 C 4.944,4.162 5.115,3.597 5.115,2.75 V -2.426 C 5.115,-3.473 4.917,-4.225 4.52,-4.679 4.123,-5.133 3.481,-5.36 2.594,-5.36 1.673,-5.36 1.011,-5.129 0.606,-4.667 0.202,-4.205 0,-3.458 0,-2.426 Z"
             style="fill:#ffc906;fill-opacity:1;fill-rule:nonzero;stroke:none"
             id="path60" /></g><g
           id="g62"
           transform="translate(242.249,496.6676)"><path
             d="M 0,0 3.235,-4.413 6.351,0 C 5.573,0.062 4.987,0.308 4.59,0.74 4.193,1.17 3.995,1.771 3.995,2.542 c 0,0.908 0.231,1.563 0.691,1.963 0.46,0.401 1.22,0.601 2.283,0.601 h 5.327 c 1.063,0 1.829,-0.2 2.297,-0.601 0.468,-0.4 0.701,-1.055 0.701,-1.963 0,-0.848 -0.226,-1.483 -0.677,-1.907 C 14.164,0.212 13.487,0 12.583,0 H 12.13 11.892 l -5.945,-8.017 7.016,-9.172 h 0.595 c 0.904,0 1.581,-0.212 2.034,-0.635 0.451,-0.424 0.678,-1.059 0.678,-1.906 0,-0.909 -0.234,-1.564 -0.702,-1.964 -0.468,-0.401 -1.241,-0.601 -2.319,-0.601 H 6.874 c -1.079,0 -1.852,0.2 -2.319,0.601 -0.468,0.4 -0.702,1.055 -0.702,1.964 0,0.832 0.206,1.451 0.619,1.859 0.412,0.409 1.054,0.636 1.926,0.682 l -3.662,5.152 -3.76,-5.152 c 0.921,-0.016 1.598,-0.235 2.034,-0.658 0.436,-0.424 0.656,-1.051 0.656,-1.883 0,-0.909 -0.234,-1.564 -0.703,-1.964 -0.467,-0.401 -1.24,-0.601 -2.318,-0.601 h -5.543 c -1.078,0 -1.843,0.2 -2.296,0.601 -0.451,0.4 -0.678,1.055 -0.678,1.964 0,0.847 0.227,1.482 0.678,1.906 0.453,0.423 1.13,0.635 2.034,0.635 h 0.595 L -0.047,-8.525 -6.374,0 h -0.571 c -0.921,0 -1.605,0.212 -2.058,0.635 -0.451,0.424 -0.678,1.059 -0.678,1.907 0,0.908 0.234,1.563 0.702,1.963 0.468,0.401 1.241,0.601 2.319,0.601 h 6.089 c 1.078,0 1.851,-0.2 2.319,-0.601 C 2.215,4.105 2.449,3.45 2.449,2.542 2.449,1.756 2.244,1.148 1.832,0.716 1.418,0.285 0.808,0.046 0,0"
             style="fill:#ffc906;fill-opacity:1;fill-rule:nonzero;stroke:none"
             id="path64" /></g><g
           id="g66"
           transform="translate(279.2769,496.714)"><path
             d="m 0,0 h -4.97 v -17.235 h 3.995 c 1.063,0 1.825,-0.201 2.285,-0.601 0.459,-0.401 0.689,-1.048 0.689,-1.94 0,-0.91 -0.23,-1.565 -0.689,-1.965 -0.46,-0.4 -1.222,-0.6 -2.285,-0.6 h -14.129 c -1.046,0 -1.8,0.2 -2.258,0.6 -0.461,0.4 -0.691,1.055 -0.691,1.965 0,0.908 0.226,1.559 0.678,1.952 0.452,0.392 1.208,0.589 2.271,0.589 h 3.998 V 0 h -4.973 l -0.142,-4.69 v -0.578 c 0,-0.739 -0.211,-1.316 -0.631,-1.732 -0.42,-0.417 -1.002,-0.625 -1.747,-0.625 -0.889,0 -1.542,0.221 -1.963,0.66 -0.419,0.439 -0.631,1.134 -0.631,2.09 v 0.185 l 0.262,6.908 c 0.049,1.371 0.242,2.195 0.584,2.472 0.34,0.278 1.033,0.416 2.081,0.416 H 2.189 C 3.236,5.106 3.93,4.968 4.271,4.69 4.611,4.413 4.813,3.589 4.877,2.218 L 5.114,-4.69 v -0.185 c 0,-0.97 -0.198,-1.671 -0.594,-2.103 -0.395,-0.431 -1.039,-0.647 -1.926,-0.647 -0.857,0 -1.471,0.212 -1.844,0.636 -0.372,0.424 -0.574,1.191 -0.606,2.299 z"
             style="fill:#ffc906;fill-opacity:1;fill-rule:nonzero;stroke:none"
             id="path68" /></g><g
           id="g70"
           transform="translate(226.8945,516.483)"><path
             d="M 0,0 19.384,-28.479 -0.19,-55.49 H -1.479 L 18.095,-28.479 -1.289,0 Z"
             style="fill:#ffffff;fill-opacity:1;fill-rule:nonzero;stroke:none"
             id="path72" /></g><g
           id="g74"
           transform="translate(294.3789,494.2331)"><path
             d="m 0,0 c 0.7,0 1.165,-0.134 1.396,-0.402 0.231,-0.269 0.345,-0.912 0.345,-1.929 0,-0.978 -0.103,-1.585 -0.308,-1.819 -0.208,-0.236 -0.693,-0.353 -1.462,-0.353 -0.747,0 -1.228,0.11 -1.445,0.331 -0.216,0.221 -0.323,0.662 -0.323,1.323 0,1.228 0.11,2.01 0.33,2.346 C -1.247,-0.168 -0.758,0 0,0 m 2.072,-16.645 h 3.094 c 0.661,0 1.13,-0.12 1.41,-0.36 0.278,-0.24 0.416,-0.638 0.416,-1.194 0,-0.566 -0.141,-0.973 -0.423,-1.222 -0.284,-0.25 -0.751,-0.375 -1.403,-0.375 H -4.56 c -0.652,0 -1.12,0.125 -1.403,0.375 -0.282,0.249 -0.424,0.656 -0.424,1.222 0,0.556 0.137,0.954 0.411,1.194 0.273,0.24 0.745,0.36 1.416,0.36 h 3.093 v 6.992 h -1.624 c -0.644,0 -1.104,0.122 -1.382,0.366 -0.278,0.245 -0.418,0.65 -0.418,1.216 0,0.566 0.135,0.969 0.404,1.209 0.267,0.239 0.732,0.359 1.396,0.359 h 4.329 c 0.269,0 0.474,-0.055 0.618,-0.165 0.145,-0.11 0.216,-0.261 0.216,-0.453 z"
             style="fill:#ffffff;fill-opacity:1;fill-rule:nonzero;stroke:none"
             id="path76" /></g><g
           id="g78"
           transform="translate(305.0557,474.6388)"><path
             d="M 0,0 C -0.249,-0.192 -0.505,-0.338 -0.769,-0.439 -1.032,-0.54 -1.303,-0.59 -1.581,-0.59 c -0.413,0 -0.703,0.111 -0.871,0.331 -0.169,0.22 -0.252,0.633 -0.252,1.237 v 1.914 c 0,0.632 0.105,1.081 0.315,1.345 0.211,0.263 0.577,0.395 1.095,0.395 0.565,0 1.026,-0.273 1.381,-0.819 C 0.298,3.515 0.477,3.294 0.62,3.151 1.089,2.729 1.636,2.412 2.259,2.201 2.883,1.989 3.592,1.884 4.388,1.884 c 0.69,0 1.243,0.135 1.655,0.404 0.413,0.268 0.618,0.618 0.618,1.049 0,0.777 -1.106,1.314 -3.322,1.612 C 2.85,5.007 2.465,5.06 2.187,5.106 0.518,5.337 -0.724,5.79 -1.539,6.466 c -0.815,0.676 -1.222,1.585 -1.222,2.726 0,1.353 0.49,2.399 1.467,3.137 0.978,0.738 2.374,1.108 4.186,1.108 0.624,0 1.263,-0.05 1.92,-0.151 0.657,-0.101 1.332,-0.257 2.022,-0.468 0.202,0.24 0.414,0.418 0.64,0.532 0.225,0.116 0.478,0.173 0.755,0.173 0.393,0 0.694,-0.122 0.901,-0.366 0.205,-0.245 0.308,-0.612 0.308,-1.101 v -1.77 C 9.438,9.874 9.333,9.555 9.122,9.33 8.91,9.104 8.613,8.992 8.229,8.992 7.836,8.992 7.163,9.334 6.209,10.021 5.255,10.706 4.297,11.048 3.339,11.048 2.59,11.048 2.01,10.926 1.598,10.682 1.186,10.438 0.979,10.1 0.979,9.668 0.979,8.996 1.841,8.545 3.568,8.315 4.067,8.257 4.46,8.209 4.747,8.171 6.916,7.855 8.404,7.382 9.215,6.754 10.025,6.126 10.431,5.193 10.431,3.956 10.431,2.507 9.896,1.388 8.826,0.597 7.758,-0.194 6.239,-0.59 4.273,-0.59 3.506,-0.59 2.769,-0.54 2.058,-0.439 1.349,-0.338 0.661,-0.192 0,0"
             style="fill:#ffffff;fill-opacity:1;fill-rule:nonzero;stroke:none"
             id="path80" /></g></g></g></g></svg>
