<svg id="Capa_1" enable-background="new 0 0 512 512" height="512" viewBox="0 0 512 512" width="512" xmlns="http://www.w3.org/2000/svg"><g><path d="m504.5 194.583h-70.333v-109.25c0-4.143-3.357-7.5-7.5-7.5h-31.417v-70.333c0-4.143-3.357-7.5-7.5-7.5h-155.667c-4.142 0-7.499 3.356-7.5 7.498l-.013 62.833c-.001 4.143 3.356 7.501 7.498 7.502 4.144 0 7.501-3.357 7.502-7.498l.011-55.335h140.669v70.333c0 4.143 3.357 7.5 7.5 7.5h31.417v101.75h-109.25c-4.143 0-7.5 3.357-7.5 7.5v70.334h-70.334c-4.143 0-7.5 3.357-7.5 7.5v70.333h-62.833v-23.917h31.417c4.143 0 7.5-3.357 7.5-7.5v-70.333h31.416c1.989 0 3.897-.79 5.304-2.197 1.406-1.406 2.196-3.314 2.196-5.304l-.013-140.667c0-4.142-3.358-7.499-7.501-7.499-4.142 0-7.499 3.358-7.499 7.501l.012 133.166h-31.415c-4.143 0-7.5 3.357-7.5 7.5v70.333h-31.417c-4.143 0-7.5 3.357-7.5 7.5v31.417h-79.25c-4.143 0-7.5 3.357-7.5 7.5v86.75c0 4.143 3.357 7.5 7.5 7.5h437c4.143 0 7.5-3.357 7.5-7.5v-242.417c0-4.143-3.357-7.5-7.5-7.5zm-7.5 15v75.001h-62.833v-75.001zm-350.25 155.667v23.917h-71.75v-23.917zm-71.75 71.75v-32.833h79.25c4.143 0 7.5-3.357 7.5-7.5v-31.417h70.333c4.143 0 7.5-3.357 7.5-7.5v-70.333h70.334c4.143 0 7.5-3.357 7.5-7.5v-70.334h101.75v82.501c0 4.143 3.357 7.5 7.5 7.5h70.333v137.416z"/><path d="m504.5 467h-459.5v-459.5c0-4.143-3.357-7.5-7.5-7.5h-30c-4.143 0-7.5 3.357-7.5 7.5s3.357 7.5 7.5 7.5h22.5v23.917h-7.5c-4.143 0-7.5 3.357-7.5 7.5s3.357 7.5 7.5 7.5h7.5v23.916h-22.5c-4.143 0-7.5 3.357-7.5 7.5s3.357 7.5 7.5 7.5h22.5v23.917h-7.5c-4.143 0-7.5 3.357-7.5 7.5s3.357 7.5 7.5 7.5h7.5v23.917h-22.5c-4.143 0-7.5 3.357-7.5 7.5s3.357 7.5 7.5 7.5h22.5v23.916h-7.5c-4.143 0-7.5 3.357-7.5 7.5s3.357 7.5 7.5 7.5h7.5v23.917h-22.5c-4.143 0-7.5 3.357-7.5 7.5s3.357 7.5 7.5 7.5h22.5v23.917h-7.5c-4.143 0-7.5 3.357-7.5 7.5s3.357 7.5 7.5 7.5h7.5v23.916h-22.5c-4.143 0-7.5 3.357-7.5 7.5s3.357 7.5 7.5 7.5h22.5v23.917h-7.5c-4.143 0-7.5 3.357-7.5 7.5s3.357 7.5 7.5 7.5h7.5v23.917h-22.5c-4.143 0-7.5 3.357-7.5 7.5s3.357 7.5 7.5 7.5h22.5v23.916h-7.5c-4.143 0-7.5 3.357-7.5 7.5s3.357 7.5 7.5 7.5h7.5v23.917h-22.5c-4.143 0-7.5 3.357-7.5 7.5s3.357 7.5 7.5 7.5h22.5v22.5c0 4.143 3.357 7.5 7.5 7.5s7.5-3.357 7.5-7.5v-22.5h23.917v7.5c0 4.143 3.357 7.5 7.5 7.5s7.5-3.357 7.5-7.5v-7.5h23.916v22.5c0 4.143 3.357 7.5 7.5 7.5s7.5-3.357 7.5-7.5v-22.5h23.917v7.5c0 4.143 3.357 7.5 7.5 7.5s7.5-3.357 7.5-7.5v-7.5h23.917v22.5c0 4.143 3.357 7.5 7.5 7.5s7.5-3.357 7.5-7.5v-22.5h23.916v7.5c0 4.143 3.357 7.5 7.5 7.5s7.5-3.357 7.5-7.5v-7.5h23.917v22.5c0 4.143 3.357 7.5 7.5 7.5s7.5-3.357 7.5-7.5v-22.5h23.917v7.5c0 4.143 3.357 7.5 7.5 7.5s7.5-3.357 7.5-7.5v-7.5h23.916v22.5c0 4.143 3.357 7.5 7.5 7.5s7.5-3.357 7.5-7.5v-22.5h23.917v7.5c0 4.143 3.357 7.5 7.5 7.5s7.5-3.357 7.5-7.5v-7.5h23.917v22.5c0 4.143 3.357 7.5 7.5 7.5s7.5-3.357 7.5-7.5v-22.5h23.916v7.5c0 4.143 3.357 7.5 7.5 7.5s7.5-3.357 7.5-7.5v-7.5h23.917v22.5c0 4.143 3.357 7.5 7.5 7.5s7.5-3.357 7.5-7.5v-30c0-4.143-3.357-7.5-7.5-7.5z"/></g></svg>