<?xml version="1.0"?>
<svg xmlns="http://www.w3.org/2000/svg" xmlns:xlink="http://www.w3.org/1999/xlink" xmlns:svgjs="http://svgjs.com/svgjs" version="1.1" width="512" height="512" x="0" y="0" viewBox="0 0 512 512" style="enable-background:new 0 0 512 512" xml:space="preserve" class=""><g><g xmlns="http://www.w3.org/2000/svg"><path d="m504 128c.016-66.274-53.696-120.013-119.97-120.03-53.488-.013-100.527 35.376-115.338 86.773-17.204-4.489-34.912-6.755-52.692-6.743-78.157 0-146.373 43.339-181.909 107.24-.357.604-.669 1.182-1.019 1.828-33.429 61.719-33.429 136.145 0 197.864.366.693.741 1.235 1.019 1.828 35.536 63.901 103.752 107.24 181.909 107.24s146.373-43.339 181.909-107.24c.383-.656.695-1.239 1.019-1.828 25.092-46.396 31.643-100.585 18.329-151.624 51.332-14.881 86.675-61.863 86.743-115.308zm-175.185 106.582c.458.237.923.46 1.384.69 7.914 17.883 12.461 35.572 13.543 52.728h-55.865c-.367-12.931-1.523-25.828-3.461-38.619zm79.006 69.418c-1.127 27.898-8.367 55.208-21.209 80h-52.345c1.22-2.13 2.41-4.26 3.544-6.388 13.248-24.864 20.6-49.585 21.944-73.612zm-92.281 80h-40c7.295-26.078 11.436-52.936 12.333-80h55.847c-1.836 28.912-13.357 56.23-28.18 80zm-291.361-80h48.066c1.344 24.027 8.7 48.748 21.944 73.612 1.134 2.128 2.324 4.258 3.544 6.388h-52.345c-12.842-24.792-20.082-52.102-21.209-80zm21.209-96h52.345c-1.22 2.13-2.41 4.26-3.544 6.388-13.248 24.864-20.6 49.585-21.944 73.612h-48.066c1.127-27.898 8.367-55.208 21.209-80zm220.175-60.763c2.023 12.535 6.024 24.669 11.855 35.948l-2.938 8.815h-3.639c-7.145-22.157-16.118-43.683-26.827-64.355 6.702 5.701 14.025 12.269 21.549 19.592zm-49.569 334.068c-15.588-25.625-28.301-52.891-37.908-81.305h75.8c-9.613 28.408-22.32 55.674-37.892 81.305zm-42.916-97.305c-7.664-26.016-12.019-52.895-12.963-80h111.769c-.948 27.106-5.311 53.985-12.984 80zm-12.962-96c.949-27.106 5.311-53.985 12.984-80h85.87c1.6 5.555 3.093 11.253 4.48 17.092l-6.67 20.008c-1.398 4.191.867 8.722 5.058 10.12 1.643.548 3.419.548 5.062 0l2.106-.7c1.578 11.098 2.534 22.275 2.864 33.48zm55.895-177.313c15.619 25.619 28.35 52.89 37.962 81.313h-75.858c9.614-28.411 22.322-55.679 37.896-81.313zm-39.328 40.657c-5.867 13.271-11.031 26.842-15.47 40.656h-33.949c8.115-11.101 16.911-21.688 26.336-31.7 10.869-11.54 22.376-22.463 34.467-32.716-3.648 7.051-7.511 14.998-11.384 23.76zm-20.228 56.656c-7.295 26.078-11.436 52.936-12.333 80h-55.842c1.836-28.912 13.357-56.23 28.18-80zm-68.189 96h55.856c.897 27.064 5.038 53.922 12.333 80h-40.042c-19.972-32.088-26.802-59.4-28.147-80zm72.947 96c4.439 13.814 9.603 27.385 15.47 40.656 3.876 8.768 7.741 16.719 11.389 23.77-12.006-10.185-23.437-21.029-34.241-32.481-9.53-10.083-18.42-20.752-26.617-31.945zm94.1 40.656c5.868-13.271 11.033-26.842 15.474-40.656h33.949c-8.115 11.101-16.911 21.688-26.336 31.7-10.869 11.541-22.376 22.463-34.467 32.717 3.648-7.051 7.511-14.998 11.384-23.761zm8.759-316.724c-7.778-7.009-15.04-13.074-21.32-18.075 7.598 1.055 15.125 2.568 22.54 4.531-.66 4.488-1.066 9.01-1.216 13.544zm-74.868-18.054c-16.684 13.273-32.402 27.717-47.035 43.222-12.64 13.341-24.173 27.688-34.486 42.9h-53.005c30.236-46.854 79.321-78.277 134.53-86.122zm-134.526 294.122h53.005c10.313 15.212 21.846 29.559 34.486 42.9 14.634 15.505 30.354 29.949 47.039 43.222-55.209-7.845-104.294-39.268-134.53-86.122zm188.114 86.122c16.685-13.273 32.405-27.717 47.039-43.222 12.64-13.341 24.173-27.688 34.486-42.9h53.005c-30.236 46.854-79.321 78.277-134.53 86.122zm165.039-198.122h-48.064c-.945-15.277-4.042-30.344-9.2-44.754 16.568 4.807 33.977 5.986 51.041 3.458 3.573 13.498 5.659 27.345 6.223 41.296zm-23.831-56c-17.687.005-35.082-4.499-50.544-13.087-1.962-1.093-4.294-1.311-6.425-.6l-50.012 16.67 16.67-50.012c.711-2.131.493-4.463-.6-6.425-27.923-50.202-9.862-113.534 40.339-141.457s113.534-9.862 141.457 40.339c27.923 50.202 9.862 113.534-40.339 141.457-15.459 8.599-32.856 13.113-50.546 13.115z" fill="#ffffff" data-original="#000000" style="" class=""/><path d="m400 40h-32c-4.418 0-8 3.582-8 8v96c0 4.418 3.582 8 8 8h32c4.418 0 8-3.582 8-8v-96c0-4.418-3.582-8-8-8zm-8 96h-16v-80h16z" fill="#ffffff" data-original="#000000" style="" class=""/><path d="m400 160h-32c-4.418 0-8 3.582-8 8v32c0 4.418 3.582 8 8 8h32c4.418 0 8-3.582 8-8v-32c0-4.418-3.582-8-8-8zm-8 32h-16v-16h16z" fill="#ffffff" data-original="#000000" style="" class=""/></g></g></svg>
