<svg height="512" viewBox="0 0 74 74" width="512" xmlns="http://www.w3.org/2000/svg"><g id="line_icons" data-name="line icons"><path d="m50.048 35.011a1 1 0 0 1 -1-1v-5.1h-36.925a1 1 0 0 1 -1-1v-14.537a1 1 0 0 1 1-1h36.925v-5.086a1 1 0 0 1 1.538-.844l20.952 13.362a1 1 0 0 1 0 1.686l-20.952 13.362a1 1 0 0 1 -.538.157zm-36.925-8.1h36.925a1 1 0 0 1 1 1v4.276l18.093-11.538-18.093-11.538v4.263a1 1 0 0 1 -1 1h-36.925z"/><path d="m23.2 24.613a2.707 2.707 0 0 1 -2.7-2.7v-2.524a2.7 2.7 0 1 1 5.407 0v2.521a2.707 2.707 0 0 1 -2.707 2.703zm0-6.428a1.205 1.205 0 0 0 -1.2 1.2v2.525a1.2 1.2 0 0 0 2.407 0v-2.521a1.205 1.205 0 0 0 -1.207-1.204z"/><path d="m35.645 24.613a2.707 2.707 0 0 1 -2.7-2.7v-2.524a2.7 2.7 0 1 1 5.408 0v2.521a2.707 2.707 0 0 1 -2.708 2.703zm0-6.428a1.205 1.205 0 0 0 -1.2 1.2v2.525a1.2 1.2 0 0 0 2.408 0v-2.521a1.205 1.205 0 0 0 -1.208-1.204z"/><path d="m16.976 24.541a.75.75 0 0 1 -.75-.75v-5.783a.75.75 0 1 1 1.5 0v5.783a.75.75 0 0 1 -.75.75z"/><path d="m29.422 24.541a.75.75 0 0 1 -.75-.75v-5.783a.75.75 0 0 1 1.5 0v5.783a.75.75 0 0 1 -.75.75z"/><path d="m41.868 24.541a.75.75 0 0 1 -.75-.75v-5.783a.75.75 0 0 1 1.5 0v5.783a.75.75 0 0 1 -.75.75z"/><path d="m48.091 24.541a.75.75 0 0 1 -.75-.75v-5.783a.75.75 0 0 1 1.5 0v5.783a.75.75 0 0 1 -.75.75z"/><path d="m23.952 67.712a1 1 0 0 1 -.538-.156l-20.952-13.362a1 1 0 0 1 0-1.686l20.952-13.362a1 1 0 0 1 1.538.843v5.1h36.925a1 1 0 0 1 1 1v14.537a1 1 0 0 1 -1 1h-36.925v5.086a1 1 0 0 1 -1 1zm-19.093-14.361 18.093 11.538v-4.263a1 1 0 0 1 1-1h36.925v-12.537h-36.925a1 1 0 0 1 -1-1v-4.276z"/><path d="m50.8 57.315a2.707 2.707 0 0 1 -2.7-2.7v-2.525a2.7 2.7 0 0 1 5.407 0v2.521a2.707 2.707 0 0 1 -2.707 2.704zm0-6.428a1.205 1.205 0 0 0 -1.2 1.2v2.521a1.2 1.2 0 1 0 2.407 0v-2.518a1.2 1.2 0 0 0 -1.207-1.203z"/><path d="m38.355 57.315a2.707 2.707 0 0 1 -2.7-2.7v-2.525a2.7 2.7 0 0 1 5.408 0v2.521a2.707 2.707 0 0 1 -2.708 2.704zm0-6.428a1.205 1.205 0 0 0 -1.2 1.2v2.521a1.2 1.2 0 0 0 2.408 0v-2.518a1.205 1.205 0 0 0 -1.208-1.203z"/><path d="m57.024 56.742a.75.75 0 0 1 -.75-.75v-5.783a.75.75 0 0 1 1.5 0v5.783a.75.75 0 0 1 -.75.75z"/><path d="m44.578 56.742a.75.75 0 0 1 -.75-.75v-5.783a.75.75 0 0 1 1.5 0v5.783a.75.75 0 0 1 -.75.75z"/><path d="m32.132 56.742a.75.75 0 0 1 -.75-.75v-5.783a.75.75 0 0 1 1.5 0v5.783a.75.75 0 0 1 -.75.75z"/><path d="m25.909 56.742a.75.75 0 0 1 -.75-.75v-5.783a.75.75 0 0 1 1.5 0v5.783a.75.75 0 0 1 -.75.75z"/></g></svg>