<?xml version="1.0" encoding="iso-8859-1"?>
<!-- Generator: Adobe Illustrator 21.0.0, SVG Export Plug-In . SVG Version: 6.00 Build 0)  -->
<svg xmlns="http://www.w3.org/2000/svg" xmlns:xlink="http://www.w3.org/1999/xlink" version="1.1" id="Capa_1" x="0px" y="0px" viewBox="0 0 510.273 510.273" style="enable-background:new 0 0 510.273 510.273;" xml:space="preserve" width="512" height="512">
<g>
	<g>
		<g>
			<g>
				<circle style="fill:rgb(0,0,0);" cx="256.856" cy="275.071" r="8.799"/>
			</g>
		</g>
	</g>
	<g>
		<path style="fill:rgb(0,0,0);" d="M376.784,0h-0.68H134.169h-0.68c-13.83,0-25.082,11.252-25.082,25.082v0.68v41.376v351.07v66.304    v0.68c0,13.83,11.252,25.082,25.082,25.082h0.68h241.936h0.68c13.83,0,25.082-11.252,25.082-25.082v-0.68v-66.304V67.138V25.762    v-0.68C401.866,11.252,390.614,0,376.784,0z M134.169,495.273c-5.934,0-10.762-4.828-10.762-10.762v-58.804h142.415    c4.143,0,7.5-3.358,7.5-7.5s-3.357-7.5-7.5-7.5H123.407V74.638h36.469c4.143,0,7.5-3.358,7.5-7.5s-3.357-7.5-7.5-7.5h-36.469    V25.762c0-5.934,4.828-10.762,10.762-10.762h241.936c5.934,0,10.762,4.828,10.762,10.762v33.876h-196.99    c-4.143,0-7.5,3.358-7.5,7.5s3.357,7.5,7.5,7.5h196.99v336.07h-91.044c-4.143,0-7.5,3.358-7.5,7.5s3.357,7.5,7.5,7.5h91.044    v58.804c0,5.934-4.828,10.762-10.762,10.762H134.169z"/>
		<path style="fill:rgb(0,0,0);" d="M206.382,45.928h46.474c4.143,0,7.5-3.358,7.5-7.5s-3.357-7.5-7.5-7.5h-46.474    c-4.143,0-7.5,3.358-7.5,7.5S202.239,45.928,206.382,45.928z"/>
		<path style="fill:rgb(0,0,0);" d="M287.752,45.928h16.14c4.143,0,7.5-3.358,7.5-7.5s-3.357-7.5-7.5-7.5h-16.14    c-4.143,0-7.5,3.358-7.5,7.5S283.609,45.928,287.752,45.928z"/>
		<path style="fill:rgb(0,0,0);" d="M255.137,432.742c-15.496,0-28.104,12.607-28.104,28.104s12.607,28.104,28.104,28.104    s28.104-12.607,28.104-28.104S270.633,432.742,255.137,432.742z M255.137,473.949c-7.226,0-13.104-5.878-13.104-13.104    s5.878-13.104,13.104-13.104s13.104,5.878,13.104,13.104S262.362,473.949,255.137,473.949z"/>
		<path style="fill:rgb(0,0,0);" d="M360.33,315.181c0.67-1.16,1.005-2.455,1.005-3.75s-0.335-2.59-1.005-3.75l-96.979-167.973    c-1.34-2.321-3.815-3.75-6.495-3.75s-5.155,1.429-6.495,3.75l-96.979,167.973c-0.67,1.16-1.005,2.455-1.005,3.75    s0.335,2.59,1.005,3.75c1.34,2.321,3.815,3.75,6.495,3.75h193.959C356.515,318.931,358.99,317.501,360.33,315.181z     M172.866,303.931l83.989-145.473l83.989,145.473H172.866z"/>
		<path style="fill:rgb(0,0,0);" d="M249.355,200.421v51.27c0,4.142,3.357,7.5,7.5,7.5s7.5-3.358,7.5-7.5v-51.27    c0-4.142-3.357-7.5-7.5-7.5S249.355,196.279,249.355,200.421z"/>
	</g>
</g>















</svg>