<?xml version="1.0" encoding="iso-8859-1"?>
<!-- Generator: Adobe Illustrator 19.0.0, SVG Export Plug-In . SVG Version: 6.00 Build 0)  -->
<svg version="1.1" id="Capa_1" xmlns="http://www.w3.org/2000/svg" xmlns:xlink="http://www.w3.org/1999/xlink" x="0px" y="0px"
	 viewBox="0 0 512.003 512.003" style="enable-background:new 0 0 512.003 512.003;" xml:space="preserve">
<g>
	<g>
		<path d="M483.124,293.802c-16.338-6.226-37.903-9.654-60.723-9.654c-1.891,0-3.769,0.032-5.64,0.079
			c0.406-4.69,0.635-9.411,0.635-14.118c0-54.302-26.766-104.173-71.797-134.246V84.148c0-0.261-0.014-0.519-0.04-0.773
			c-0.839-22.492-37.945-35.042-74.747-37.509c-4.129-0.286-7.709,2.849-7.985,6.981c-0.276,4.134,2.849,7.708,6.981,7.985
			c39.143,2.623,60.79,15.451,60.79,23.315c0,3.594-5.033,9.707-19.217,15.112c-14.675,5.592-34.343,8.671-55.382,8.671
			c-21.039,0-40.707-3.079-55.381-8.671c-14.181-5.404-19.215-11.517-19.215-15.111c0-7.825,20.457-20.235,58.865-23.187
			c4.13-0.316,7.221-3.922,6.903-8.052c-0.316-4.129-3.903-7.223-8.052-6.903c-35.776,2.748-71.847,15.363-72.678,37.371
			c-0.026,0.253-0.039,0.51-0.039,0.77v51.72c-44.977,30.069-71.794,80.135-71.794,134.24c0,4.707,0.229,9.428,0.635,14.118
			c-1.872-0.047-3.751-0.079-5.643-0.079c-22.819,0-44.385,3.429-60.723,9.654C10.255,300.896,0,311.241,0,322.93v104.442
			c0,11.688,10.255,22.034,28.876,29.129c16.338,6.226,37.903,9.654,60.723,9.654s44.385-3.429,60.723-9.654
			c18.62-7.095,28.875-17.44,28.875-29.129v-15.298c17.68,9.607,36.773,15.73,56.912,18.208c0.312,0.038,0.62,0.057,0.926,0.057
			c3.733,0,6.967-2.785,7.435-6.585c0.505-4.111-2.418-7.854-6.528-8.36c-21.005-2.583-40.757-9.537-58.744-20.652v-71.776
			c0-0.012,0.001-0.024,0.001-0.036c0-11.688-10.255-22.033-28.876-29.128c-11.265-4.292-25.016-7.254-39.948-8.68
			c-0.505-4.975-0.767-10.003-0.767-15.013c0-45.634,21.039-88.1,56.794-115.767v34.249c0,11.688,10.255,22.033,28.876,29.128
			c16.338,6.226,37.903,9.654,60.723,9.654s44.384-3.429,60.722-9.654c18.621-7.095,28.876-17.439,28.876-29.128v-34.28
			c35.801,27.648,56.797,69.989,56.797,115.799c0,5.01-0.262,10.038-0.767,15.013c-14.934,1.426-28.685,4.388-39.951,8.68
			c-18.62,7.095-28.875,17.439-28.875,29.128v71.813c-19.802,12.223-42.486,19.606-65.718,21.343
			c-4.131,0.31-7.229,3.908-6.92,8.039c0.295,3.94,3.584,6.94,7.472,6.94c0.188,0,0.377-0.007,0.567-0.021
			c22.589-1.69,44.71-8.218,64.599-18.977v15.303c0,11.688,10.255,22.034,28.875,29.129c16.338,6.226,37.903,9.654,60.723,9.654
			c22.82,0,44.385-3.429,60.723-9.654c18.621-7.095,28.876-17.44,28.876-29.129V322.93C512,311.241,501.745,300.896,483.124,293.802
			z M164.198,427.372c-0.001,3.594-5.033,9.708-19.217,15.112c-14.675,5.592-34.343,8.671-55.382,8.671s-40.707-3.079-55.382-8.671
			C20.033,437.079,15,430.966,15,427.372v-26.289c3.913,2.516,8.551,4.812,13.876,6.841c16.338,6.226,37.903,9.654,60.723,9.654
			s44.385-3.429,60.723-9.654c5.325-2.029,9.963-4.325,13.875-6.841V427.372z M144.982,307.819
			c14.174,5.4,19.209,11.51,19.216,15.103c0,0.002,0,0.005,0,0.007v0.011c-0.01,3.595-5.047,9.701-19.216,15.101
			c-14.675,5.592-34.343,8.671-55.382,8.671c-7.603,0-15.156-0.416-22.451-1.237c-4.12-0.475-7.828,2.498-8.292,6.614
			c-0.463,4.116,2.498,7.829,6.614,8.292c7.851,0.883,15.969,1.331,24.129,1.331c22.819,0,44.384-3.429,60.723-9.654
			c5.325-2.029,9.962-4.325,13.875-6.841v33.576c0,3.594-5.032,9.708-19.216,15.112c-14.675,5.592-34.343,8.671-55.382,8.671
			s-40.707-3.079-55.382-8.671C20.033,388.502,15,382.389,15,378.795v-33.573c4.962,3.178,11.095,6.008,18.327,8.41
			c3.936,1.302,8.176-0.823,9.482-4.754c1.305-3.932-0.823-8.177-4.754-9.482C22.129,334.105,15,327.313,15,322.93
			c0-3.593,5.033-9.707,19.217-15.111c14.675-5.592,34.343-8.671,55.382-8.671S130.307,302.227,144.982,307.819z M330.599,188.591
			c0,3.592-5.034,9.707-19.217,15.111c-14.674,5.592-34.342,8.671-55.381,8.671s-40.707-3.079-55.382-8.671
			c-14.184-5.404-19.217-11.519-19.217-15.111v-26.289c3.913,2.516,8.551,4.812,13.876,6.841
			c16.338,6.226,37.903,9.654,60.723,9.654c22.82,0,44.384-3.429,60.723-9.654c5.325-2.029,9.963-4.325,13.875-6.841V188.591z
			 M330.599,140.012c0,3.594-5.033,9.707-19.217,15.112c-14.674,5.592-34.342,8.671-55.381,8.671s-40.707-3.079-55.382-8.671
			c-14.184-5.405-19.217-11.519-19.217-15.112v-33.576c3.913,2.516,8.55,4.812,13.875,6.841c16.339,6.226,37.903,9.654,60.723,9.654
			c22.82,0,44.385-3.429,60.723-9.654c5.325-2.029,9.963-4.325,13.876-6.841V140.012z M497,427.372
			c0,3.594-5.033,9.707-19.217,15.112c-14.675,5.592-34.343,8.671-55.382,8.671s-40.707-3.079-55.382-8.671
			c-14.184-5.404-19.216-11.519-19.216-15.112v-26.289c3.912,2.516,8.55,4.812,13.875,6.841c16.338,6.226,37.903,9.654,60.723,9.654
			c22.82,0,44.385-3.429,60.723-9.654c5.325-2.029,9.963-4.325,13.876-6.841V427.372z M497,378.795
			c0,3.594-5.033,9.707-19.217,15.112c-14.675,5.592-34.343,8.671-55.382,8.671s-40.707-3.079-55.382-8.671
			c-14.184-5.404-19.216-11.519-19.216-15.112v-33.576c3.912,2.516,8.55,4.812,13.875,6.841c16.338,6.226,37.903,9.654,60.723,9.654
			c22.82,0,44.385-3.429,60.723-9.654c5.325-2.029,9.963-4.325,13.876-6.841V378.795z M477.784,338.042
			c-14.675,5.592-34.343,8.671-55.382,8.671s-40.707-3.079-55.382-8.671c-14.184-5.404-19.216-11.519-19.216-15.112
			c0-3.592,5.032-9.706,19.216-15.111c14.675-5.592,34.343-8.671,55.382-8.671s40.707,3.079,55.382,8.671
			c14.184,5.404,19.217,11.519,19.217,15.111C497.001,326.523,491.968,332.636,477.784,338.042z"/>
	</g>
</g>
<g>
	<g>
		<path d="M226.214,244.631c-4.143,0-7.5,3.357-7.5,7.5v1.296c0,4.143,3.357,7.5,7.5,7.5c4.143,0,7.5-3.357,7.5-7.5v-1.296
			C233.714,247.988,230.357,244.631,226.214,244.631z"/>
	</g>
</g>
<g>
	<g>
		<path d="M256.002,244.631c-4.143,0-7.5,3.357-7.5,7.5v1.296c0,4.143,3.357,7.5,7.5,7.5c4.143,0,7.5-3.358,7.5-7.5v-1.296
			C263.502,247.988,260.145,244.631,256.002,244.631z"/>
	</g>
</g>
<g>
	<g>
		<path d="M285.789,244.631c-4.143,0-7.5,3.357-7.5,7.5v1.296c0,4.143,3.357,7.5,7.5,7.5c4.143,0,7.5-3.358,7.5-7.5v-1.296
			C293.289,247.988,289.932,244.631,285.789,244.631z"/>
	</g>
</g>
<g>
</g>
<g>
</g>
<g>
</g>
<g>
</g>
<g>
</g>
<g>
</g>
<g>
</g>
<g>
</g>
<g>
</g>
<g>
</g>
<g>
</g>
<g>
</g>
<g>
</g>
<g>
</g>
<g>
</g>
</svg>
