<svg height="512pt" viewBox="-27 0 512 512" width="512pt" xmlns="http://www.w3.org/2000/svg"><path d="m408 40h-14.050781c-1.046875-22.234375-19.460938-40-41.949219-40h-32c-5.523438 0-10 4.476562-10 10v30h-269.5c-.550781 0-1.089844.054688-1.617188.140625-21.722656 1.699219-38.882812 19.902344-38.882812 42.054687v379.804688c0 27.570312 22.429688 50 50 50h358c27.570312 0 50-22.429688 50-50v-140.285156c0-5.523438-4.476562-10-10-10s-10 4.476562-10 10v140.285156c0 16.542969-13.457031 30-30 30h-358c-16.542969 0-30-13.457031-30-30s13.457031-30 30-30h302c23.160156 0 42-18.839844 42-42v-330h14c16.542969 0 30 13.457031 30 30v151.714844c0 5.519531 4.476562 10 10 10s10-4.480469 10-10v-151.714844c0-27.570312-22.429688-50-50-50zm-56-20c12.132812 0 22 9.867188 22 22v312.242188c-6.402344-3.953126-13.9375-6.242188-22-6.242188h-22v-328zm0 392h-302c-11.246094 0-21.636719 3.734375-30 10.027344v-339.832032c0-12.238281 9.957031-22.195312 22.195312-22.195312h267.804688v298c0 5.523438 4.476562 10 10 10h32c12.132812 0 22 9.867188 22 22s-9.867188 22-22 22zm0 0"/><path d="m50 452c-5.523438 0-10 4.476562-10 10s4.476562 10 10 10h334c5.523438 0 10-4.476562 10-10s-4.476562-10-10-10zm0 0"/><path d="m236.136719 126h-142.273438c-19.222656 0-34.863281 15.640625-34.863281 34.863281v138.1875c0 19.226563 15.640625 34.867188 34.863281 34.867188h75.179688l29.15625 29.152343c1.914062 1.914063 4.46875 2.929688 7.074219 2.929688 1.285156 0 2.585937-.25 3.824218-.761719 3.734375-1.546875 6.171875-5.191406 6.171875-9.238281v-22.082031h20.863281c19.226563 0 34.867188-15.640625 34.867188-34.867188v-138.1875c0-19.222656-15.640625-34.863281-34.863281-34.863281zm14.863281 173.050781c0 8.195313-6.667969 14.867188-14.863281 14.867188h-30.867188c-5.523437 0-10 4.476562-10 10v7.941406l-15.011719-15.015625c-1.875-1.875-4.417968-2.929688-7.070312-2.929688h-79.324219c-8.195312 0-14.863281-6.667968-14.863281-14.863281v-138.1875c0-8.195312 6.667969-14.863281 14.863281-14.863281h142.273438c8.195312 0 14.863281 6.667969 14.863281 14.863281zm0 0"/><path d="m448 271.710938c-2.628906 0-5.210938 1.070312-7.070312 2.929687-1.859376 1.863281-2.929688 4.441406-2.929688 7.070313 0 2.632812 1.070312 5.210937 2.929688 7.070312 1.859374 1.859375 4.441406 2.929688 7.070312 2.929688s5.210938-1.070313 7.070312-2.929688c1.859376-1.859375 2.929688-4.4375 2.929688-7.070312 0-2.628907-1.070312-5.207032-2.929688-7.070313-1.859374-1.859375-4.441406-2.929687-7.070312-2.929687zm0 0"/><path d="m208.722656 259.703125c4.453125-1.011719 7.777344-4.988281 7.777344-9.746094 0-5.519531-4.476562-10-10-10h-5.410156l-25.261719-65.328125c-1.492187-3.855468-5.195313-6.394531-9.328125-6.394531s-7.835938 2.539063-9.328125 6.394531l-25.261719 65.328125h-5.410156c-5.523438 0-10 4.480469-10 10 0 4.757813 3.324219 8.734375 7.777344 9.746094l-7.105469 18.375c-1.992187 5.148437.570313 10.941406 5.722656 12.933594 5.152344 1.992187 10.941407-.570313 12.933594-5.722657l9.792969-25.328124h41.757812l9.796875 25.328124c1.53125 3.96875 5.316407 6.398438 9.328125 6.398438 1.199219 0 2.417969-.21875 3.605469-.675781 5.148437-1.992188 7.710937-7.785157 5.71875-12.9375zm-55.367187-19.746094 13.144531-33.992187 13.144531 33.992187zm0 0"/></svg>