<svg height="512" viewBox="0 0 512 512" width="512" xmlns="http://www.w3.org/2000/svg"><g><path d="m256 80c-97.05 0-176 78.95-176 176s78.95 176 176 176 176-78.95 176-176-78.95-176-176-176zm0 336c-88.22 0-160-71.78-160-160s71.78-160 160-160 160 71.78 160 160-71.78 160-160 160z"/><path d="m256 72a8 8 0 0 0 8-8v-48a8 8 0 0 0 -16 0v48a8 8 0 0 0 8 8z"/><path d="m256 440a8 8 0 0 0 -8 8v16a8 8 0 0 0 16 0v-16a8 8 0 0 0 -8-8z"/><path d="m496 248h-48a8 8 0 0 0 0 16h48a8 8 0 0 0 0-16z"/><path d="m65 248h-49a8 8 0 0 0 0 16h49a8 8 0 0 0 0-16z"/><path d="m256 480a8 8 0 0 0 -8 8v8a8 8 0 0 0 16 0v-8a8 8 0 0 0 -8-8z"/><path d="m397.422 386.107a8 8 0 1 0 -11.315 11.315l33.942 33.941a8 8 0 1 0 11.314-11.314z"/><path d="m114.578 125.893a8 8 0 0 0 11.315-11.315l-11.314-11.313a8 8 0 0 0 -11.314 11.314z"/><path d="m114.578 386.107-33.941 33.942a8 8 0 0 0 11.314 11.314l33.942-33.941a8 8 0 1 0 -11.315-11.315z"/><path d="m420.049 80.637-34.649 34.648a8 8 0 0 0 11.315 11.315l34.648-34.649a8 8 0 1 0 -11.314-11.314z"/><path d="m86.294 97.608a8 8 0 0 0 11.314-11.314l-5.657-5.657a8 8 0 0 0 -11.314 11.314z"/><path d="m311.16 252.42a8.011 8.011 0 0 0 -7.16-4.42h-22.4l6.38-87.42a8 8 0 0 0 -14.38-5.38l-72 96a8 8 0 0 0 6.4 12.8h23.31l-7.28 87.34a8 8 0 0 0 14.37 5.46l72-96a8.011 8.011 0 0 0 .76-8.38zm-68.88 72.54 5.69-68.3a7.987 7.987 0 0 0 -7.97-8.66h-16l46.04-61.38-5.02 68.8a8 8 0 0 0 7.98 8.58h15z"/></g></svg>