<svg height="512" viewBox="0 0 74 74" width="512" xmlns="http://www.w3.org/2000/svg"><g id="line_icons" data-name="line icons"><path d="m21.656 41.311a19.656 19.656 0 1 1 19.655-19.655 19.677 19.677 0 0 1 -19.655 19.655zm0-37.311a17.656 17.656 0 1 0 17.655 17.656 17.675 17.675 0 0 0 -17.655-17.656z"/><path d="m26.072 29.755h-8.511a1 1 0 0 1 -.6-1.8 2.622 2.622 0 0 0 1.043-1.878l.712-9.071a3.763 3.763 0 0 1 7.512.314v.38a1 1 0 0 1 -2 0v-.38a1.763 1.763 0 0 0 -3.519-.151l-.709 9.07a4.632 4.632 0 0 1 -.395 1.516h6.468a1 1 0 0 1 0 2z"/><path d="m21.775 23.238h-4.536a1 1 0 0 1 0-2h4.536a1 1 0 0 1 0 2z"/><path d="m52.344 66.939a14.595 14.595 0 1 1 14.595-14.595 14.611 14.611 0 0 1 -14.595 14.595zm0-27.189a12.595 12.595 0 1 0 12.595 12.594 12.609 12.609 0 0 0 -12.595-12.594z"/><path d="m21.656 36.25a14.595 14.595 0 1 1 14.594-14.594 14.611 14.611 0 0 1 -14.594 14.594zm0-27.189a12.595 12.595 0 1 0 12.594 12.6 12.609 12.609 0 0 0 -12.594-12.6z"/><path d="m52.344 72a19.656 19.656 0 1 1 19.656-19.656 19.677 19.677 0 0 1 -19.656 19.656zm0-37.311a17.656 17.656 0 1 0 17.656 17.655 17.675 17.675 0 0 0 -17.656-17.655z"/><path d="m52.344 60.627a4.646 4.646 0 0 1 -4.644-4.641 1 1 0 1 1 2 0 2.642 2.642 0 1 0 2.641-2.642 4.641 4.641 0 1 1 4.645-4.644 1 1 0 0 1 -2 0 2.642 2.642 0 1 0 -2.642 2.641 4.642 4.642 0 1 1 0 9.283z"/><path d="m52.344 46.062a1 1 0 0 1 -1-1v-1.4a1 1 0 0 1 2 0v1.4a1 1 0 0 1 -1 1z"/><path d="m52.344 62.027a1 1 0 0 1 -1-1v-1.4a1 1 0 0 1 2 0v1.4a1 1 0 0 1 -1 1z"/><path d="m25.44 66.417h-16.757a1 1 0 0 1 -1-1v-15.617a1 1 0 0 1 2 0v14.617h15.757a1 1 0 0 1 0 2z"/><path d="m4.991 55.184a1 1 0 0 1 -.765-1.644l3.692-4.385a1.034 1.034 0 0 1 1.53 0l3.693 4.385a1 1 0 0 1 -1.531 1.288l-2.927-3.476-2.927 3.476a1 1 0 0 1 -.765.356z"/><path d="m65.317 25.2a1 1 0 0 1 -1-1v-14.617h-15.757a1 1 0 0 1 0-2h16.757a1 1 0 0 1 1 1v15.617a1 1 0 0 1 -1 1z"/><path d="m65.317 25.2a1 1 0 0 1 -.765-.356l-3.693-4.384a1 1 0 0 1 1.531-1.288l2.927 3.476 2.927-3.476a1 1 0 1 1 1.53 1.288l-3.692 4.385a1 1 0 0 1 -.765.355z"/></g></svg>