<?xml version="1.0" encoding="UTF-8"?>
<svg xmlns="http://www.w3.org/2000/svg" id="Out_line" data-name="Out line" viewBox="0 0 512 512" width="512" height="512"><path d="M439.37207,16a56.35293,56.35293,0,0,0-44.21973,21.25293L365.03613,74.898A96.34962,96.34962,0,0,0,344,134.86865,33.16862,33.16862,0,0,0,377.13086,168a96.348,96.348,0,0,0,59.9707-21.03662l37.64551-30.11621A56.628,56.628,0,0,0,439.37207,16ZM480,72.62408l-.00488.00373a40.13175,40.13175,0,0,1-31.58106,38.47748,85.54967,85.54967,0,0,0-33.70239-13.80988,84.85349,84.85349,0,0,0-13.80957-33.746,40.1317,40.1317,0,0,1,38.47-31.54456l.00537-.00476A40.67389,40.67389,0,0,1,480,72.62408ZM360,134.86865a80.28955,80.28955,0,0,1,17.53027-49.97558l10.01294-12.51612a69.22909,69.22909,0,0,1,.23633,78.89484A79.40641,79.40641,0,0,1,377.13086,152,17.15029,17.15029,0,0,1,360,134.86865Zm67.10645-.39941a79.8322,79.8322,0,0,1-17.89356,10.78662,85.69292,85.69292,0,0,0,6.74829-31.38062A69.5422,69.5422,0,0,1,439.61475,124.463Z"/><circle cx="440" cy="48" r="8"/><circle cx="464" cy="72" r="8"/><path d="M440,80a8.00917,8.00917,0,0,1-8-8,8,8,0,0,0-16,0,24.02718,24.02718,0,0,0,24,24,8,8,0,0,0,0-16Z"/><path d="M155.30005,362.05005q-.22522-.31512-.48-.63013A19.98065,19.98065,0,0,0,158.54,340.5,32.02264,32.02264,0,0,0,176,312V300a20.02009,20.02009,0,0,0-20-20h-8a20.02009,20.02009,0,0,0-20,20,3.999,3.999,0,0,1-4,4h-8a3.999,3.999,0,0,1-4-4,20,20,0,0,0-40,0v12a32.02264,32.02264,0,0,0,17.46,28.5,19.98065,19.98065,0,0,0,3.72,20.91992q-.25488.31512-.48.63013l-11.96,16.75A132.638,132.638,0,0,0,56.97,440H24a7.99782,7.99782,0,0,0-8,8v40a7.9979,7.9979,0,0,0,8,8H152a40.04018,40.04018,0,0,0,40-40,132.0595,132.0595,0,0,0-24.74-77.19995ZM88,312V300a4,4,0,0,1,8,0,20.02009,20.02009,0,0,0,20,20h8a20.02009,20.02009,0,0,0,20-20,3.999,3.999,0,0,1,4-4h8a3.999,3.999,0,0,1,4,4v12a16.02116,16.02116,0,0,1-16,16H104A16.02116,16.02116,0,0,1,88,312Zm16,36a3.999,3.999,0,0,1,4-4h32a4,4,0,0,1,0,8v.38a23.76673,23.76673,0,0,0-4.23-.38H112.23a23.76673,23.76673,0,0,0-4.23.38V352A3.999,3.999,0,0,1,104,348ZM32,456H64v24H32Zm48,0h8v24H80Zm24,0h8v24h-8Zm32,24h-8V456h8Zm16,0V448a7.99782,7.99782,0,0,0-8-8H73.10986A116.53453,116.53453,0,0,1,93.76,388.1l11.96-16.75a8.02292,8.02292,0,0,1,6.51-3.35h23.54a8.02292,8.02292,0,0,1,6.51,3.35l11.96,16.75A116.14,116.14,0,0,1,176,456,24.03189,24.03189,0,0,1,152,480Z"/><path d="M32,55.59686V92.686L18.34277,106.34326A8.00038,8.00038,0,0,0,24,120H40v56a8.00008,8.00008,0,0,0,8,8H160a8.00008,8.00008,0,0,0,8-8V120h16a8.00038,8.00038,0,0,0,5.65723-13.65674l-80-80a8.00122,8.00122,0,0,0-11.31446,0L94.97266,29.7135A20.02448,20.02448,0,0,0,76,16H36a20.00052,20.00052,0,0,0-4,39.59686ZM48,56H64v4.686l-16,16Zm64,112H96V144h16Zm40,0H128V136a8.00008,8.00008,0,0,0-8-8H88a8.00008,8.00008,0,0,0-8,8v32H56V120h96ZM104,43.314,164.68652,104H43.31348ZM36,32H76a4,4,0,0,1,0,8H36a4,4,0,0,1,0-8Z"/><path d="M264,440H208v16h56a111.387,111.387,0,0,0,88.28418-43.07227l-12.60547-9.85449A95.4857,95.4857,0,0,1,264,440Z"/><path d="M148,232a35.79338,35.79338,0,0,1-35.85254-32.71777l-15.93555,1.43554A52.00457,52.00457,0,0,0,148,248H264a95.4857,95.4857,0,0,1,75.67871,36.92676l12.60547-9.85449A111.387,111.387,0,0,0,264,232Z"/><rect x="184" y="144" width="144" height="16"/><path d="M488,312H475.31006L468.72,305.40991A86.15368,86.15368,0,0,0,407.37988,280a87.182,87.182,0,0,0-67.28979,32H304a31.99093,31.99093,0,0,0-15.77,59.83l.00781.004A31.98685,31.98685,0,0,0,348,383.47,31.99559,31.99559,0,0,0,406.99,376h10.02a32.00283,32.00283,0,0,0,62.24-1.12A24.04071,24.04071,0,0,0,496,352V320A7.99782,7.99782,0,0,0,488,312ZM356,328h17.8501A16.00279,16.00279,0,0,1,360,336h-4a4,4,0,0,1,0-8Zm-19.6001,0A20.26609,20.26609,0,0,0,336,332a20.0348,20.0348,0,0,0,13.06006,18.76,31.76638,31.76638,0,0,0-4.05,9.24H304a15.97409,15.97409,0,0,1-13.84009-8H308a20.02009,20.02009,0,0,0,20-20,20.26609,20.26609,0,0,0-.3999-4ZM304,328h4a4,4,0,0,1,0,8H290.15991A15.97409,15.97409,0,0,1,304,328Zm16,56a15.99656,15.99656,0,0,1-13.835-8H333.835A15.99656,15.99656,0,0,1,320,384Zm56,0a16,16,0,1,1,16-16A16.02116,16.02116,0,0,1,376,384Zm72,0a16,16,0,1,1,16-16A16.02116,16.02116,0,0,1,448,384Zm32-32a7.96959,7.96959,0,0,1-1.8999,5.15991A31.99879,31.99879,0,0,0,417.01,360H406.99a32.15761,32.15761,0,0,0-20.40991-22.19995A31.94135,31.94135,0,0,0,390.99,328H440V312H362.60986a71.1011,71.1011,0,0,1,44.77-16,70.2931,70.2931,0,0,1,50.03,20.72l8.93018,8.93994A8.00769,8.00769,0,0,0,472,328h8Z"/></svg>
