<?xml version="1.0"?>
<svg xmlns="http://www.w3.org/2000/svg" xmlns:xlink="http://www.w3.org/1999/xlink" xmlns:svgjs="http://svgjs.com/svgjs" version="1.1" width="512" height="512" x="0" y="0" viewBox="0 0 64 64" style="enable-background:new 0 0 512 512" xml:space="preserve" class=""><g><g xmlns="http://www.w3.org/2000/svg"><path d="m9 1v10h-4v7h-4v40c0 2.757 2.243 5 5 5h52c2.757 0 5-2.243 5-5v-57zm-2 12h2v44h-1c-.551 0-1-.449-1-1zm-1 48c-1.654 0-3-1.346-3-3v-38h2v36c0 1.654 1.346 3 3 3h.816c-.414 1.161-1.514 2-2.816 2zm52 0h-48.002c.628-.836 1.002-1.875 1.002-3v-39h2v-2h-2v-14h50v14h-2v2h2v39c0 1.654-1.346 3-3 3z" fill="#003e65" data-original="#000000" style="" class=""/><path d="m44.098 12.876c-.013.138-.246.146-.27.01l-.684-4.102c-.172-1.034-1.058-1.784-2.182-1.784-1.048 0-1.935.75-2.107 1.785l-.684 4.102c-.022.137-.254.148-.272-.032l-.906-7.967-1.987.226.904 7.945c.101 1.106 1.016 1.941 2.128 1.941 1.048 0 1.935-.75 2.107-1.785l.684-4.102c.01-.065.067-.113.209-.113.067 0 .123.048.134.114l.684 4.102c.172 1.034 1.058 1.784 2.106 1.784 1.112 0 2.026-.835 2.125-1.92l.906-7.967-1.987-.226z" fill="#003e65" data-original="#000000" style="" class=""/><path d="m18 7.887 4.446 7.113h2.554v-10h-2v7.113l-4.446-7.113h-2.554v10h2z" fill="#003e65" data-original="#000000" style="" class=""/><path d="m54 13h-2c-.551 0-1-.449-1-1h-2c0 1.654 1.346 3 3 3h2c1.654 0 3-1.346 3-3s-1.346-3-3-3h-2c-.551 0-1-.449-1-1s.449-1 1-1h2c.551 0 1 .449 1 1h2c0-1.654-1.346-3-3-3h-2c-1.654 0-3 1.346-3 3s1.346 3 3 3h2c.551 0 1 .449 1 1s-.449 1-1 1z" fill="#003e65" data-original="#000000" style="" class=""/><path d="m33 13h-4v-2h4v-2h-4v-2h4v-2h-6v10h6z" fill="#003e65" data-original="#000000" style="" class=""/><path d="m51 17h2v2h-2z" fill="#003e65" data-original="#000000" style="" class=""/><path d="m19 17h2v2h-2z" fill="#003e65" data-original="#000000" style="" class=""/><path d="m23 17h2v2h-2z" fill="#003e65" data-original="#000000" style="" class=""/><path d="m31 17h2v2h-2z" fill="#003e65" data-original="#000000" style="" class=""/><path d="m27 17h2v2h-2z" fill="#003e65" data-original="#000000" style="" class=""/><path d="m47 17h2v2h-2z" fill="#003e65" data-original="#000000" style="" class=""/><path d="m39 17h2v2h-2z" fill="#003e65" data-original="#000000" style="" class=""/><path d="m35 17h2v2h-2z" fill="#003e65" data-original="#000000" style="" class=""/><path d="m55 17h2v2h-2z" fill="#003e65" data-original="#000000" style="" class=""/><path d="m43 17h2v2h-2z" fill="#003e65" data-original="#000000" style="" class=""/><path d="m15 17h2v2h-2z" fill="#003e65" data-original="#000000" style="" class=""/><path d="m13 51h32v-30h-32zm9-11v-6c0-3.86 3.14-7 7-7s7 3.14 7 7v6c0 .72-.159 1.428-.46 2.08l-2.09-.42c-.502-.143-.914-.479-1.17-.917 1.045-.917 1.72-2.246 1.72-3.743v-4h-2.764c-1.308 0-2.618-.309-3.789-.895l-.211-.105h-.236c-1.654 0-3 1.346-3 3v2c0 1.497.675 2.827 1.721 3.744-.252.436-.649.768-1.095.897l-2.166.438c-.301-.652-.46-1.359-.46-2.079zm10-3c0 1.654-1.346 3-3 3s-3-1.346-3-3v-2c0-.486.349-.893.809-.982 1.38.643 2.905.982 4.427.982h.764zm-4.539 4.732c.488.16.999.268 1.539.268.541 0 1.052-.108 1.541-.268.123.211.267.408.427.593-.157.948-.976 1.675-1.968 1.675-.99 0-1.807-.724-1.966-1.668.159-.187.303-.386.427-.6zm-6.055 2.6 3.692-.749c.07-.02.134-.049.202-.073.598 1.458 2.029 2.49 3.7 2.49 1.669 0 3.099-1.03 3.698-2.497.093.033.183.072.28.099l3.617.73c1.393.282 2.405 1.519 2.405 2.941v1.727h-20v-1.727c0-1.422 1.012-2.659 2.406-2.941zm-6.406-21.332h28v26h-2v-1.727c0-2.188-1.444-4.095-3.492-4.748.314-.804.492-1.656.492-2.525v-6c0-4.962-4.038-9-9-9s-9 4.038-9 9v6c0 .869.178 1.721.492 2.525-2.048.653-3.492 2.56-3.492 4.748v1.727h-2z" fill="#003e65" data-original="#000000" style="" class=""/><path d="m47 27h12v-6h-12zm2-4h8v2h-8z" fill="#003e65" data-original="#000000" style="" class=""/><path d="m47 29h12v2h-12z" fill="#003e65" data-original="#000000" style="" class=""/><path d="m47 37h12v2h-12z" fill="#003e65" data-original="#000000" style="" class=""/><path d="m47 41h12v2h-12z" fill="#003e65" data-original="#000000" style="" class=""/><path d="m51 45h8v2h-8z" fill="#003e65" data-original="#000000" style="" class=""/><path d="m47 45h2v2h-2z" fill="#003e65" data-original="#000000" style="" class=""/><path d="m47 49h12v2h-12z" fill="#003e65" data-original="#000000" style="" class=""/><path d="m57 33h2v2h-2z" fill="#003e65" data-original="#000000" style="" class=""/><path d="m47 33h8v2h-8z" fill="#003e65" data-original="#000000" style="" class=""/><path d="m13 59h14v-6h-14zm2-4h10v2h-10z" fill="#003e65" data-original="#000000" style="" class=""/><path d="m29 59h14v-6h-14zm2-4h10v2h-10z" fill="#003e65" data-original="#000000" style="" class=""/></g></g></svg>
