<svg id="Capa_1" enable-background="new 0 0 512 512" height="512" viewBox="0 0 512 512" width="512" xmlns="http://www.w3.org/2000/svg"><g><path d="m489.559 160.503h-380.077c-4.131 0-7.48 3.349-7.48 7.48s3.349 7.48 7.48 7.48h1.153v81.035c0 4.132 3.349 7.48 7.48 7.48s7.48-3.349 7.48-7.48v-81.035h33.99v28.055c0 4.132 3.349 7.48 7.48 7.48s7.48-3.349 7.48-7.48v-28.055h33.99v81.035c0 4.132 3.349 7.48 7.48 7.48s7.48-3.349 7.48-7.48v-81.035h33.989v28.055c0 4.132 3.349 7.48 7.48 7.48 4.132 0 7.48-3.349 7.48-7.48v-28.055h33.99v81.035c0 4.132 3.349 7.48 7.48 7.48 4.132 0 7.48-3.349 7.48-7.48v-81.035h33.989v28.055c0 4.132 3.349 7.48 7.48 7.48 4.132 0 7.48-3.349 7.48-7.48v-28.055h33.99v81.035c0 4.132 3.349 7.48 7.48 7.48s7.48-3.349 7.48-7.48v-81.035h33.989v28.055c0 4.132 3.349 7.48 7.48 7.48 4.132 0 7.48-3.349 7.48-7.48v-28.055h21.315c4.125 0 7.48 3.355 7.48 7.48v146.113c0 4.125-3.355 7.48-7.48 7.48h-96.802c-4.132 0-7.48 3.349-7.48 7.48 0 4.132 3.349 7.48 7.48 7.48h96.802c12.373 0 22.441-10.067 22.441-22.441v-146.112c.002-12.373-10.065-22.44-22.439-22.44z"/><path d="m355.601 336.537h-333.16c-4.125 0-7.48-3.355-7.48-7.48v-146.114c0-4.125 3.355-7.48 7.48-7.48h51.414c4.131 0 7.48-3.349 7.48-7.48s-3.349-7.48-7.48-7.48h-51.414c-12.374 0-22.441 10.067-22.441 22.44v146.113c0 12.374 10.067 22.441 22.441 22.441h333.16c4.132 0 7.48-3.349 7.48-7.48 0-4.132-3.349-7.48-7.48-7.48z"/><path d="m167.911 317.748c4.131 0 7.48-3.349 7.48-7.48v-59.648c0-4.132-3.349-7.48-7.48-7.48h-12.749c-4.131 0-7.48 3.349-7.48 7.48 0 4.132 3.349 7.48 7.48 7.48h5.269v52.168c0 4.131 3.349 7.48 7.48 7.48z"/><path d="m474.196 252.395c-.423-5.066-3.49-9.204-7.813-10.543-4.302-1.331-8.856.307-12.181 4.386-3.432 4.212-19.127 32.504-23.856 41.075-1.278 2.317-1.237 5.138.109 7.417 1.345 2.278 3.795 3.677 6.441 3.677h22.297c-.026 3.557-.054 6.965-.081 10.059-.035 4.131 3.284 7.508 7.416 7.544h.065c4.101 0 7.443-3.307 7.479-7.416.02-2.45.051-6.016.082-10.188h.198c4.132 0 7.48-3.349 7.48-7.48 0-4.132-3.349-7.48-7.48-7.48h-.097c.082-14.261.118-28.921-.059-31.051zm-14.904 31.051h-9.679c3.522-6.291 6.945-12.321 9.75-17.165-.011 4.976-.036 10.965-.071 17.165z"/><path d="m286.397 269.008c.195-1.055.454-2.928.488-3.998 0-12.54-10.202-22.743-22.743-22.743-10.843 0-20.228 7.714-22.316 18.343-.796 4.054 1.844 7.985 5.898 8.781 4.052.793 7.985-1.845 8.782-5.898.713-3.63 3.924-6.266 7.636-6.266 4.158 0 7.565 3.278 7.772 7.386-.466 3.839-2.306 6.922-5.274 11.363-9.44 13.488-15.072 20.862-18.098 24.824-3.773 4.94-5.667 7.42-4.404 11.522.747 2.427 2.583 4.287 5.032 5.103.993.331 24.351.584 32.857.477 4.131-.052 7.437-3.442 7.385-7.574-.052-4.099-3.39-7.386-7.477-7.386-.032 0-.064 0-.096.001-5.483.068-11.28.116-16.267.131 3.241-4.356 7.599-10.338 13.326-18.521 3.863-5.52 6.387-10.751 7.499-15.545z"/><path d="m379.428 281.023c3.662-4.038 5.897-9.394 5.897-15.262 0-12.54-10.202-22.743-22.743-22.743-10.843 0-20.229 7.714-22.316 18.342-.796 4.054 1.845 7.986 5.898 8.781 4.054.8 7.986-1.845 8.781-5.898.713-3.63 3.924-6.265 7.636-6.265 4.291 0 7.782 3.491 7.782 7.782s-3.491 7.782-7.782 7.782c-4.132 0-7.48 3.349-7.48 7.48 0 4.132 3.349 7.48 7.48 7.48 4.291 0 7.782 3.491 7.782 7.782s-3.491 7.783-7.782 7.783c-3.862 0-7.175-2.875-7.707-6.691-.051-.359-.076-.727-.076-1.092 0-4.132-3.349-7.48-7.48-7.48-4.132 0-7.48 3.349-7.48 7.48 0 1.058.074 2.122.22 3.163 1.556 11.163 11.24 19.581 22.523 19.581 12.54 0 22.743-10.202 22.743-22.743.001-5.868-2.234-11.224-5.896-15.262z"/><path d="m59.835 219.291c-16.254 0-29.479 13.224-29.479 29.479s13.224 29.479 29.479 29.479 29.479-13.224 29.479-29.479-13.224-29.479-29.479-29.479zm0 43.996c-8.005 0-14.518-6.513-14.518-14.518s6.513-14.518 14.518-14.518c8.006 0 14.519 6.513 14.519 14.518-.001 8.005-6.514 14.518-14.519 14.518z"/></g></svg>