<?xml version="1.0" encoding="UTF-8"?>
<svg xmlns="http://www.w3.org/2000/svg" viewBox="0 0 64 64" width="512" height="512"><g id="Scale-Weigher-Kitchen-Cook-Kitchen_tools" data-name="Scale-Weigher-Kitchen-Cook-Kitchen tools"><path d="M56,60H8a1,1,0,0,0,0,2H56a1,1,0,0,0,0-2Z"/><path d="M61.707,2.293a1,1,0,0,0-1.414,0L58.464,4.121A3.017,3.017,0,0,1,56.343,5H7.657a3.017,3.017,0,0,1-2.121-.879L3.707,2.293A1,1,0,0,0,2.293,3.707L4.122,5.535A4.968,4.968,0,0,0,7.657,7H56.343a4.968,4.968,0,0,0,3.535-1.465l1.829-1.828A1,1,0,0,0,61.707,2.293Z"/><path d="M40,15V14a3,3,0,0,1,3-3H54a1,1,0,0,0,0-2H43a5.006,5.006,0,0,0-5,5v1a1,1,0,0,0,2,0Z"/><path d="M25,16a1,1,0,0,0,1-1V14a5.006,5.006,0,0,0-5-5H10a1,1,0,0,0,0,2H21a3,3,0,0,1,3,3v1A1,1,0,0,0,25,16Z"/><path d="M57.53,52.48,55.31,31.43A14.96,14.96,0,0,0,40.4,18H23.6A14.96,14.96,0,0,0,8.69,31.43L6.47,52.48A5.012,5.012,0,0,0,11.44,58H52.56a5.012,5.012,0,0,0,4.97-5.52Zm-2.74,2.53a2.972,2.972,0,0,1-2.23.99H11.44a2.99,2.99,0,0,1-2.98-3.31l2.22-21.05A12.956,12.956,0,0,1,23.6,20H40.4A12.956,12.956,0,0,1,53.32,31.64l2.22,21.05A2.991,2.991,0,0,1,54.79,55.01Z"/><path d="M32,25A14,14,0,1,0,46,39,14.015,14.015,0,0,0,32,25Zm1,25.95V49a1,1,0,0,0-2,0v1.95A12,12,0,0,1,20.05,40H22a1,1,0,0,0,0-2H20.05A12,12,0,0,1,31,27.05V29a1,1,0,0,0,2,0V27.05A12,12,0,0,1,43.95,38H42a1,1,0,0,0,0,2h1.95A12,12,0,0,1,33,50.95Z"/><path d="M32.97,32.758a1,1,0,0,0-1.94,0l-2,8A1,1,0,0,0,30,42h4a1,1,0,0,0,.97-1.242ZM31.281,40,32,37.123,32.719,40Z"/></g></svg>
