<svg id="Icons" height="512" viewBox="0 0 74 74" width="512" xmlns="http://www.w3.org/2000/svg"><path d="m68.819 51.125a1 1 0 0 1 -1-1v-26.225a1 1 0 1 1 2 0v26.225a1 1 0 0 1 -1 1z"/><path d="m41.434 30.572a1 1 0 0 1 -.352-1.937l22.166-8.311a1 1 0 0 1 .7 1.873l-22.163 8.311a1.007 1.007 0 0 1 -.351.064z"/><path d="m37 62.594a1 1 0 0 1 -1-1v-25.759a1 1 0 0 1 2 0v25.759a1 1 0 0 1 -1 1z"/><path d="m41.6 66.3a1 1 0 0 1 -.352-1.937l22.628-8.487a1 1 0 0 1 .7 1.873l-22.629 8.483a1.007 1.007 0 0 1 -.347.068z"/><path d="m5.181 51.125a1 1 0 0 1 -1-1v-26.225a1 1 0 0 1 2 0v26.225a1 1 0 0 1 -1 1z"/><path d="m32.566 30.572a1.007 1.007 0 0 1 -.351-.064l-22.166-8.308a1 1 0 1 1 .7-1.873l22.166 8.311a1 1 0 0 1 -.352 1.937z"/><path d="m37 62.594a1 1 0 0 1 -1-1v-25.759a1 1 0 0 1 2 0v25.759a1 1 0 0 1 -1 1z"/><path d="m21.4 62.17a1.007 1.007 0 0 1 -.351-.064l-2.32-.87a1 1 0 0 1 .7-1.873l2.32.87a1 1 0 0 1 -.349 1.937z"/><path d="m13.48 59.2a.986.986 0 0 1 -.351-.065l-3.7-1.39a1 1 0 1 1 .7-1.872l3.7 1.39a1 1 0 0 1 -.349 1.937z"/><path d="m32.4 66.3a1 1 0 0 1 -.351-.064l-5.4-2.03a1 1 0 1 1 .7-1.872l5.4 2.03a1 1 0 0 1 -.349 1.936z"/><path d="m63.6 18.329a1 1 0 0 1 -.351-.064l-22.099-8.284a1 1 0 1 1 .7-1.873l22.1 8.284a1 1 0 0 1 -.35 1.937z"/><path d="m10.4 18.329a1 1 0 0 1 -.35-1.937l22.1-8.284a1 1 0 1 1 .7 1.873l-22.1 8.284a1 1 0 0 1 -.35.064z"/><path d="m37 13.406a5.7 5.7 0 1 1 5.7-5.7 5.71 5.71 0 0 1 -5.7 5.7zm0-9.406a3.7 3.7 0 1 0 3.7 3.7 3.707 3.707 0 0 0 -3.7-3.7z"/><path d="m37 36.835a5.7 5.7 0 1 1 5.7-5.7 5.709 5.709 0 0 1 -5.7 5.7zm0-9.406a3.7 3.7 0 1 0 3.7 3.7 3.707 3.707 0 0 0 -3.7-3.7z"/><path d="m37 72a5.7 5.7 0 1 1 5.7-5.7 5.709 5.709 0 0 1 -5.7 5.7zm0-9.406a3.7 3.7 0 1 0 3.7 3.7 3.707 3.707 0 0 0 -3.7-3.7z"/><path d="m6.136 25a5.7 5.7 0 1 1 5.7-5.7 5.71 5.71 0 0 1 -5.7 5.7zm0-9.406a3.7 3.7 0 1 0 3.7 3.7 3.707 3.707 0 0 0 -3.7-3.702z"/><path d="m67.864 25a5.7 5.7 0 1 1 5.7-5.7 5.711 5.711 0 0 1 -5.7 5.7zm0-9.406a3.7 3.7 0 1 0 3.7 3.7 3.707 3.707 0 0 0 -3.7-3.702z"/><path d="m68.479 60.519a5.7 5.7 0 1 1 5.7-5.7 5.711 5.711 0 0 1 -5.7 5.7zm0-9.406a3.7 3.7 0 1 0 3.7 3.7 3.708 3.708 0 0 0 -3.7-3.7z"/><path d="m5.521 60.519a5.7 5.7 0 1 1 5.7-5.7 5.71 5.71 0 0 1 -5.7 5.7zm0-9.406a3.7 3.7 0 1 0 3.7 3.7 3.707 3.707 0 0 0 -3.7-3.7z"/></svg>