<?xml version="1.0" encoding="UTF-8" standalone="no"?>
<svg
        xmlns="http://www.w3.org/2000/svg"
        version="1.1"
        id="svg10274"
        width="29.583775"
        height="29.604628">
    <metadata
            id="metadata10280">
    </metadata>
    <defs
            id="defs10278" />
    <g
            id="g10282"
            transform="matrix(1.3333334,0,0,1.3333334,-870.87958,-239.07041)">
        <path
                style="fill:#ffffff;fill-opacity:1;fill-rule:nonzero;stroke:none;stroke-width:4.00853"
                d="m 667.31476,198.73477 c 0.81425,-1.9103 1.25266,-4.55657 1.3623,-7.21847 h 4.38432 c -0.42278,3.31954 -2.69325,6.09107 -5.74662,7.21847 m -11.86897,-7.21847 h 4.38433 c 0.0938,2.6619 0.53237,5.30817 1.36226,7.21847 -3.06901,-1.1274 -5.32381,-3.89893 -5.74659,-7.21847 m 5.74659,-9.45764 c -0.82989,1.9103 -1.26834,4.57225 -1.36226,7.23415 h -4.38433 c 0.42278,-3.33522 2.67758,-6.10675 5.74659,-7.23415 m 0.86119,7.23415 c 0.0782,-2.12953 0.39163,-4.08681 0.89254,-5.60568 0.59502,-1.78504 1.20568,-2.16084 1.29964,-2.16084 0.0938,0 0.70462,0.3756 1.29964,2.16084 0.5167,1.51887 0.82989,3.47615 0.8925,5.60568 z m 2.19218,9.99001 c -0.0938,0 -0.70462,-0.3756 -1.29964,-2.16088 -0.50107,-1.5345 -0.81422,-3.47611 -0.89254,-5.60564 h 4.38432 c -0.0625,2.12953 -0.3756,4.07114 -0.8925,5.60564 -0.59502,1.78508 -1.20568,2.16088 -1.29964,2.16088 m 8.81563,-9.99001 h -4.38432 c -0.10984,-2.6619 -0.54805,-5.32385 -1.3623,-7.23415 3.05337,1.1274 5.32384,3.89893 5.74662,7.23415 m -8.81563,-9.99001 c -6.12238,0 -11.0861,4.97935 -11.0861,11.10173 0,6.12243 4.96372,11.10174 11.0861,11.10174 6.12238,0 11.10173,-4.97931 11.10173,-11.10174 0,-6.12238 -4.97935,-11.10173 -11.10173,-11.10173"
                id="path6134-3" />
    </g>
</svg>
