<?xml version="1.0" encoding="UTF-8" standalone="no"?>
<svg
        xmlns="http://www.w3.org/2000/svg"
        version="1.1"
        id="svg10349"
        width="81.640259"
        height="26.857788">
    <metadata
            id="metadata10355">
    </metadata>
    <defs
            id="defs10353" />
    <g
            id="g10357"
            transform="matrix(1.3333334,0,0,1.3333334,-820.93225,-129.2875)">
        <g
                id="g10328"
                transform="translate(2.0688235,-11.072968)">
            <path
                    style="fill:#333a45;fill-opacity:1;fill-rule:nonzero;stroke:none;stroke-width:4.53934"
                    d="m 668.98908,128.18193 h -49.48952 c -3.2449,0 -5.86923,-2.62429 -5.86923,-5.86923 v -8.42262 c 0,-3.22716 2.62433,-5.85149 5.86923,-5.85149 h 46.52828 c 2.48247,0 4.69894,1.56041 5.51462,3.90103 l 2.97894,8.44031 c 1.3476,3.79462 -1.48949,7.802 -5.53232,7.802"
                    id="path6308-3" />
            <path
                    style="fill:#ffc705;fill-opacity:1;fill-rule:nonzero;stroke:none;stroke-width:4.53934"
                    d="m 626.41499,119.84797 v -4.61026 h -0.46102 c -0.38994,0 -0.67382,-0.0886 -0.81568,-0.21288 -0.17755,-0.15987 -0.26601,-0.38995 -0.26601,-0.70928 0,-0.33683 0.0886,-0.56743 0.26601,-0.70927 0.14161,-0.15987 0.42533,-0.2306 0.81568,-0.2306 h 2.44698 c 0.37222,0 0.63833,0.0709 0.79792,0.2306 0.17755,0.14161 0.26601,0.37223 0.26601,0.70927 0,0.30141 -0.0886,0.51421 -0.24831,0.67383 -0.15987,0.15986 -0.38992,0.24829 -0.67382,0.24829 h -0.14161 v 7.60695 c 0,0.26601 -0.0363,0.42533 -0.0886,0.49647 -0.0709,0.0709 -0.1952,0.10625 -0.38994,0.10625 h -0.86887 c -0.28371,0 -0.46102,-0.0363 -0.58513,-0.0886 -0.10625,-0.053 -0.19518,-0.15987 -0.2837,-0.30142 l -3.60008,-6.11744 v 4.53936 h 0.51423 c 0.37222,0 0.63837,0.0709 0.79793,0.21288 0.15987,0.14161 0.24829,0.37223 0.24829,0.70927 0,0.31912 -0.0886,0.56743 -0.24829,0.69154 -0.17755,0.15987 -0.42534,0.2306 -0.79793,0.2306 h -2.48241 c -0.37222,0 -0.63837,-0.0709 -0.81568,-0.2306 -0.15967,-0.12393 -0.24829,-0.37223 -0.24829,-0.69154 0,-0.3014 0.0886,-0.53196 0.23059,-0.69155 0.15987,-0.14161 0.38993,-0.2306 0.69156,-0.2306 h 0.14161 v -6.24161 h -0.14161 c -0.2837,0 -0.51424,-0.0886 -0.6738,-0.24829 -0.15987,-0.15987 -0.24831,-0.37223 -0.24831,-0.67379 0,-0.33681 0.0886,-0.56741 0.266,-0.70927 0.15987,-0.15987 0.42534,-0.2306 0.79797,-0.2306 h 1.41855 c 0.33681,0 0.56741,0.053 0.69152,0.14161 0.12393,0.0709 0.24831,0.2483 0.40763,0.51423 z m 0,0"
                    id="path6310-6" />
            <path
                    style="fill:#ffc705;fill-opacity:1;fill-rule:nonzero;stroke:none;stroke-width:4.53934"
                    d="m 637.49738,115.14907 h -4.00742 v 2.14551 h 1.5072 v -0.10625 c 0,-0.31912 0.0886,-0.54968 0.21288,-0.70927 0.15987,-0.15987 0.37223,-0.2306 0.67383,-0.2306 0.24831,0 0.46101,0.0709 0.62063,0.21288 0.15929,0.14161 0.24829,0.31912 0.24829,0.53198 0,0.0175 0.0175,0.053 0.0175,0.12393 0,0.053 0,0.10626 0,0.17755 v 1.73772 c 0,0.37222 -0.0709,0.63835 -0.19521,0.79791 -0.14161,0.15987 -0.37222,0.24831 -0.69152,0.24831 -0.2837,0 -0.51422,-0.0709 -0.65606,-0.2306 -0.14161,-0.14161 -0.2306,-0.37222 -0.2306,-0.67378 v -0.14161 h -1.5072 v 2.50018 h 4.00742 v -0.99298 c 0,-0.37222 0.0709,-0.63837 0.2306,-0.81566 0.14161,-0.14161 0.37222,-0.23062 0.70927,-0.23062 0.33681,0 0.56743,0.0709 0.70927,0.23062 0.14161,0.15987 0.2129,0.44348 0.2129,0.81566 v 2.02143 c 0,0.3014 -0.0709,0.5142 -0.19518,0.62061 -0.10626,0.0886 -0.35453,0.14161 -0.70928,0.14161 h -7.07499 c -0.37222,0 -0.63837,-0.0709 -0.79793,-0.23059 -0.17754,-0.14161 -0.24829,-0.37223 -0.24829,-0.70927 0,-0.28373 0.0707,-0.51423 0.2306,-0.67383 0.15987,-0.14161 0.37222,-0.23059 0.67382,-0.23059 h 0.14161 v -6.24161 h -0.14161 c -0.28371,0 -0.51422,-0.0886 -0.67382,-0.2483 -0.15929,-0.15987 -0.2306,-0.38994 -0.2306,-0.67382 0,-0.33683 0.0707,-0.56743 0.24829,-0.70927 0.15929,-0.15987 0.42536,-0.2306 0.79793,-0.2306 h 7.07499 c 0.35451,0 0.58517,0.053 0.70928,0.15987 0.12432,0.10626 0.19518,0.30142 0.19518,0.62062 v 1.87956 c 0,0.37223 -0.0709,0.63837 -0.2306,0.81569 -0.14161,0.15987 -0.37222,0.24829 -0.69151,0.24829 -0.33684,0 -0.56743,-0.0886 -0.70928,-0.26601 -0.15987,-0.15987 -0.23061,-0.42533 -0.23061,-0.79791 z m 0,0"
                    id="path6312-7" />
            <path
                    style="fill:#ffc705;fill-opacity:1;fill-rule:nonzero;stroke:none;stroke-width:4.53934"
                    d="m 643.34887,115.23771 1.1703,1.59586 1.13482,-1.59586 c -0.28371,-0.0363 -0.49647,-0.10626 -0.63832,-0.26599 -0.14161,-0.15987 -0.2129,-0.38994 -0.2129,-0.65609 0,-0.33681 0.0886,-0.56741 0.24832,-0.70927 0.15928,-0.15987 0.44303,-0.2306 0.83336,-0.2306 h 1.93277 c 0.37222,0 0.65606,0.0709 0.83342,0.2306 0.15928,0.14161 0.24831,0.37222 0.24831,0.70927 0,0.30142 -0.0886,0.53192 -0.24831,0.69154 -0.15968,0.14161 -0.40809,0.2306 -0.72701,0.2306 h -0.26601 l -2.14557,2.90799 2.53563,3.31584 h 0.2129 c 0.33681,0 0.58516,0.0886 0.74472,0.23062 0.15987,0.15987 0.24829,0.38992 0.24829,0.69155 0,0.33684 -0.0886,0.56743 -0.26599,0.72699 -0.15987,0.14161 -0.44349,0.21288 -0.83343,0.21288 h -2.30512 c -0.38994,0 -0.67382,-0.0707 -0.85113,-0.21288 -0.15987,-0.15987 -0.24829,-0.38994 -0.24829,-0.72699 0,-0.3014 0.0707,-0.5142 0.21288,-0.67382 0.15928,-0.14161 0.38994,-0.23059 0.70927,-0.24829 l -1.32989,-1.86187 -1.36534,1.86187 c 0.33682,0.0175 0.58513,0.0886 0.74473,0.24829 0.14161,0.14161 0.23059,0.37223 0.23059,0.67382 0,0.33684 -0.0886,0.56743 -0.24829,0.72699 -0.17755,0.14161 -0.46102,0.21288 -0.85114,0.21288 h -2.00367 c -0.38992,0 -0.67382,-0.0707 -0.83342,-0.21288 -0.15928,-0.15987 -0.24829,-0.38994 -0.24829,-0.72699 0,-0.3014 0.0886,-0.53195 0.24829,-0.69155 0.15987,-0.14161 0.40809,-0.23062 0.74479,-0.23062 h 0.21288 l 2.35833,-3.13849 -2.30513,-3.08534 h -0.19518 c -0.33684,0 -0.58517,-0.0886 -0.74473,-0.2306 -0.17754,-0.15987 -0.24831,-0.38994 -0.24831,-0.69154 0,-0.33681 0.0886,-0.56741 0.24831,-0.70927 0.17755,-0.15987 0.461,-0.2306 0.85112,-0.2306 h 2.19872 c 0.38994,0 0.67382,0.0709 0.85113,0.2306 0.15987,0.14161 0.2483,0.37222 0.2483,0.70927 0,0.28373 -0.0709,0.49647 -0.2306,0.65609 -0.14161,0.15987 -0.37223,0.24829 -0.65607,0.26599"
                    id="path6314-5" />
            <path
                    style="fill:#ffc705;fill-opacity:1;fill-rule:nonzero;stroke:none;stroke-width:4.53934"
                    d="m 656.7896,115.21997 h -1.80866 v 6.24159 h 1.454 c 0.38992,0 0.65606,0.0886 0.81566,0.2306 0.17755,0.14161 0.24831,0.37223 0.24831,0.69158 0,0.33681 -0.0709,0.56741 -0.24831,0.72696 -0.15987,0.14161 -0.42533,0.2129 -0.81566,0.2129 h -5.12451 c -0.38994,0 -0.65608,-0.0709 -0.83338,-0.2129 -0.15987,-0.15987 -0.24831,-0.38992 -0.24831,-0.72696 0,-0.31912 0.0886,-0.54972 0.24831,-0.70928 0.15987,-0.12393 0.4435,-0.2129 0.83338,-0.2129 h 1.43628 v -6.24159 h -1.79091 l -0.053,1.70225 v 0.19519 c 0,0.28372 -0.0707,0.47877 -0.23059,0.63837 -0.15987,0.14161 -0.37223,0.23059 -0.63837,0.23059 -0.31912,0 -0.54966,-0.0886 -0.70928,-0.24829 -0.15928,-0.15987 -0.23059,-0.40764 -0.23059,-0.74478 v -0.0709 l 0.0886,-2.51788 c 0.0175,-0.49653 0.0886,-0.79799 0.2129,-0.88662 0.12393,-0.10626 0.37222,-0.15987 0.76246,-0.15987 h 7.42963 c 0.37223,0 0.62064,0.053 0.74473,0.15987 0.12393,0.0886 0.1952,0.38992 0.23061,0.88662 l 0.0707,2.51788 v 0.0709 c 0,0.33683 -0.0707,0.60292 -0.2129,0.76248 -0.14161,0.14161 -0.37223,0.23059 -0.69152,0.23059 -0.31912,0 -0.53196,-0.0886 -0.67382,-0.23059 -0.14161,-0.15987 -0.2129,-0.4435 -0.2129,-0.83338 z m 0,0"
                    id="path6316-3" />
            <path
                    style="fill:#ffffff;fill-opacity:1;fill-rule:nonzero;stroke:none;stroke-width:4.53934"
                    d="m 637.78109,108.03859 7.03952,10.33763 -7.11046,9.80571 h -0.46102 l 7.09272,-9.80571 -7.03952,-10.33763 z m 0,0"
                    id="path6318-5" />
            <path
                    style="fill:#ffffff;fill-opacity:1;fill-rule:nonzero;stroke:none;stroke-width:4.53934"
                    d="m 662.26871,116.10654 c 0.24832,0 0.42534,0.053 0.49647,0.15987 0.0886,0.0886 0.12433,0.31912 0.12433,0.69157 0,0.35451 -0.0363,0.58511 -0.10626,0.65607 -0.0709,0.0886 -0.24831,0.14161 -0.53198,0.14161 -0.26599,0 -0.44348,-0.0363 -0.5142,-0.12393 -0.0886,-0.0886 -0.12394,-0.2483 -0.12394,-0.47876 0,-0.44349 0.0363,-0.72702 0.12394,-0.85113 0.0707,-0.12393 0.24829,-0.19518 0.53196,-0.19518 m 0.74472,6.04654 h 1.11708 c 0.24832,0 0.42534,0.0363 0.51423,0.12393 0.10625,0.0886 0.15987,0.24831 0.15987,0.4435 0,0.1952 -0.053,0.35453 -0.15987,0.44349 -0.10626,0.0886 -0.26601,0.14161 -0.51423,0.14161 h -3.51085 c -0.24831,0 -0.40808,-0.053 -0.51426,-0.14161 -0.10626,-0.0886 -0.15929,-0.24829 -0.15929,-0.44349 0,-0.19519 0.053,-0.35451 0.14161,-0.4435 0.10626,-0.0886 0.28373,-0.12393 0.53198,-0.12393 h 1.11708 v -2.53563 h -0.58516 c -0.24831,0 -0.40764,-0.053 -0.51422,-0.12394 -0.10626,-0.0886 -0.14161,-0.24829 -0.14161,-0.44349 0,-0.21288 0.0363,-0.35451 0.14161,-0.4435 0.0886,-0.0886 0.266,-0.12393 0.51422,-0.12393 h 1.56039 c 0.0886,0 0.17754,0.0175 0.23059,0.053 0.053,0.0363 0.0709,0.0886 0.0709,0.15987 z m 0,0"
                    id="path6320-6" />
            <path
                    style="fill:#ffffff;fill-opacity:1;fill-rule:nonzero;stroke:none;stroke-width:4.53934"
                    d="m 666.13423,123.21702 c -0.0886,0.0886 -0.17754,0.12393 -0.2837,0.15987 -0.0886,0.0363 -0.17755,0.053 -0.28371,0.053 -0.14161,0 -0.26601,-0.0363 -0.31911,-0.10626 -0.0707,-0.0886 -0.0886,-0.23059 -0.0886,-0.46102 v -0.69157 c 0,-0.2306 0.0363,-0.38992 0.10625,-0.47876 0.0886,-0.10625 0.2129,-0.14161 0.40811,-0.14161 0.19518,0 0.37222,0.0886 0.49645,0.28371 0.0709,0.10626 0.14161,0.19518 0.1952,0.24829 0.17755,0.15987 0.37223,0.26601 0.60286,0.33684 0.2129,0.0886 0.47878,0.12393 0.76248,0.12393 0.24831,0 0.4435,-0.053 0.60288,-0.14161 0.14161,-0.10626 0.21288,-0.2306 0.21288,-0.38992 0,-0.28371 -0.38992,-0.47872 -1.18802,-0.58513 -0.17755,-0.0175 -0.31912,-0.0363 -0.42534,-0.053 -0.60288,-0.0886 -1.0639,-0.24829 -1.3476,-0.49651 -0.3014,-0.24831 -0.4435,-0.56743 -0.4435,-0.99298 0,-0.47877 0.17755,-0.86883 0.53198,-1.13484 0.35451,-0.266 0.85111,-0.40763 1.50718,-0.40763 0.2306,0 0.46102,0.0363 0.70927,0.0709 0.2306,0.0363 0.47878,0.0886 0.72699,0.15967 0.0707,-0.0886 0.14161,-0.14161 0.2306,-0.19518 0.0886,-0.0363 0.17755,-0.053 0.26601,-0.053 0.15987,0 0.26601,0.0363 0.33681,0.12393 0.0707,0.0886 0.10626,0.2306 0.10626,0.40764 v 0.63837 c 0,0.14161 -0.0363,0.26601 -0.10626,0.33681 -0.0709,0.0886 -0.19518,0.12394 -0.33681,0.12394 -0.14161,0 -0.37223,-0.12394 -0.72703,-0.37223 -0.33681,-0.2306 -0.69152,-0.37223 -1.02843,-0.37223 -0.2837,0 -0.49647,0.053 -0.63833,0.14161 -0.14161,0.0886 -0.2306,0.21289 -0.2306,0.37223 0,0.2306 0.31912,0.40762 0.93983,0.47875 0.17755,0.0175 0.31912,0.0363 0.42534,0.053 0.79793,0.12394 1.32985,0.28371 1.63131,0.51423 0.2837,0.2306 0.44349,0.56741 0.44349,1.02843 0,0.51422 -0.1952,0.92207 -0.58518,1.20578 -0.38992,0.30142 -0.93977,0.42535 -1.64904,0.42535 -0.28371,0 -0.54968,-0.0175 -0.81569,-0.053 -0.24829,-0.0363 -0.49645,-0.0709 -0.74472,-0.15987"
                    id="path6322-2" />
        </g>
    </g>
</svg>
